<?xml version="1.0" encoding="utf-8"?>
<!-- Generator: Adobe Illustrator 25.3.1, SVG Export Plug-In . SVG Version: 6.00 Build 0)  -->
<!DOCTYPE svg PUBLIC "-//W3C//DTD SVG 1.1//EN" "http://www.w3.org/Graphics/SVG/1.1/DTD/svg11.dtd" [
	<!ENTITY ns_extend "http://ns.adobe.com/Extensibility/1.0/">
	<!ENTITY ns_ai "http://ns.adobe.com/AdobeIllustrator/10.0/">
	<!ENTITY ns_graphs "http://ns.adobe.com/Graphs/1.0/">
	<!ENTITY ns_vars "http://ns.adobe.com/Variables/1.0/">
	<!ENTITY ns_imrep "http://ns.adobe.com/ImageReplacement/1.0/">
	<!ENTITY ns_sfw "http://ns.adobe.com/SaveForWeb/1.0/">
	<!ENTITY ns_custom "http://ns.adobe.com/GenericCustomNamespace/1.0/">
	<!ENTITY ns_adobe_xpath "http://ns.adobe.com/XPath/1.0/">
]>
<svg version="1.1" id="Layer_1" xmlns:x="&ns_extend;" xmlns:i="&ns_ai;" xmlns:graph="&ns_graphs;"
	 xmlns="http://www.w3.org/2000/svg" xmlns:xlink="http://www.w3.org/1999/xlink" x="0px" y="0px" viewBox="0 0 100 22.2"
	 style="enable-background:new 0 0 100 22.2;" xml:space="preserve">
<style type="text/css">
	.st0{fill-rule:evenodd;clip-rule:evenodd;fill:#FFFFFF;}
	.st1{fill:#FFFFFF;}
</style>
<metadata>
	<sfw  xmlns="&ns_sfw;">
		<slices></slices>
		<sliceSourceBounds  bottomLeftOrigin="true" height="22.2" width="100" x="245.1" y="54.6"></sliceSourceBounds>
	</sfw>
</metadata>
<g>
	<path class="st0" d="M37.7,10.9h2.6c2.5,3,5.8,9,9.2,9c1.3,0,1.8-0.5,1.8-0.7c0-0.1-0.1-0.2-0.2-0.2c-0.3,0.1-0.6,0.1-0.9,0.1
		c-2,0-4.7-3.4-8.3-8.6c2.2-0.5,3.9-1.8,3.9-4.5c0-3.4-3.3-4.3-6.7-4.3h-3.8c0.8,1.1,0.9,1,0.9,3v12.1c0,2-0.1,1.9-0.9,3h3.3
		c-0.8-1.1-0.9-1-0.9-3L37.7,10.9L37.7,10.9z M37.7,10.1V2.6h1.6c3.4,0,4.8,1.6,4.8,3.6c0,2.7-2.2,3.8-5,3.8H37.7L37.7,10.1z"/>
	<path class="st1" d="M63.9,16.4c-0.7,0.7-1.8,2.8-5.9,2.8c-2.6,0-2.8-0.9-2.8-2.9v-5.9h4.4c1.3,0,1.4,0.2,2.1,0.8V8.7
		c-0.7,0.7-1,0.8-2,0.8h-4.5V2.6h2.9c2.9,0,3,0.4,3.8,1.7V1.8h-9.6c1.3,0.9,1.3,1.7,1.3,3V17c0,1.4,0,2.1-1.3,3h10.4L63.9,16.4
		L63.9,16.4z"/>
	<path class="st1" d="M81.6,16.9c-0.8,0.9-2.1,2.7-5.5,2.7c-4.9,0-8.4-3.8-8.4-8.8c0-5,3.3-8.3,8-8.3c3.8,0,5,2,5.6,2.8V2.2
		c-0.5-0.1-3.3-0.7-5.1-0.7c-4.8,0-10.4,3.1-10.4,9.7c0,5.7,5,9.3,9.6,9.3c3.1,0,3.9-0.4,5.8-1L81.6,16.9L81.6,16.9z"/>
	<path class="st0" d="M91.5,1.4l-6.7,15.8c-0.7,1.6-0.8,1.8-2,2.7h3c-0.4-0.3-0.6-0.4-0.6-1c0-0.3,0.2-0.9,0.4-1.3l2.4-5.7h6.2
		l2.4,6.1c0.1,0.3,0.2,0.5,0.2,0.8c0,0.6-0.3,0.8-0.6,1.2h3.8c-0.9-0.5-1.1-0.4-1.9-2.4L91.5,1.4L91.5,1.4z M93.8,11.1h-5.5l2.8-6.7
		L93.8,11.1L93.8,11.1z"/>
	<path class="st1" d="M6.2,2.6c2.9,0,3.1,0.4,3.8,1.7V1.8H0c1.3,0.9,1.3,1.7,1.3,3V17c0,2-0.1,1.9-0.9,3h3.3c-0.8-1.1-0.9-1-0.9-3
		v-6.3h4.8c1.3,0,1.4,0.2,2.1,0.8V9.1c-0.7,0.7-1,0.8-2,0.8H2.9V2.6H6.2L6.2,2.6z"/>
	<path class="st1" d="M15.4,4c-0.4-0.7-0.3-1.6,0.4-2c0.6-0.4,1.5-0.3,1.9,0.4c0.9-0.5,1.9-0.8,3-0.9C20.8,0.6,21.4,0,22.1,0
		c0.7,0,1.4,0.6,1.4,1.4c1.1,0.2,2,0.5,2.9,0.9C27,1.7,27.8,1.6,28.4,2c0.6,0.4,0.8,1.3,0.3,2c0.6,0.6,1.2,1.3,1.7,2.1
		c0.7-0.3,1.6,0.1,1.8,0.7c0.3,0.7-0.1,1.5-0.8,1.9c0.2,0.7,0.3,1.5,0.3,2.3h-1.5c0-4.5-3.7-8.2-8.2-8.2s-8.2,3.7-8.2,8.2h-1.5
		c0-0.8,0.1-1.6,0.3-2.3c-0.7-0.3-1.1-1.1-0.8-1.8c0.3-0.7,1.1-1,1.9-0.8C14.2,5.3,14.8,4.6,15.4,4L15.4,4z"/>
	<path class="st1" d="M13.4,15.2c-0.5-0.2-1.7-0.7-1.9-0.8c-0.1-0.1-0.2-0.2-0.1-0.4l1.2-1.3c-0.1-0.6-0.2-1.2-0.2-1.7h1.5
		c0,4.5,3.7,8.2,8.2,8.2s8.2-3.7,8.2-8.2h1.5c0,0.6-0.1,1.2-0.2,1.7c0.3,0.5,0.9,1.4,1.1,1.6c0.1,0.1,0,0.3-0.2,0.3l-1.7,0.4
		c-0.5,1-1.1,1.9-1.9,2.7c0,0.6,0,1.7,0,2c0,0.1-0.2,0.3-0.3,0.2L27,19.4c-1.1,0.6-2.3,1.1-3.6,1.2c-0.3,0.5-0.9,1.4-1.1,1.6
		c-0.1,0.1-0.3,0.1-0.4,0l-1.1-1.5c-1.3-0.2-2.5-0.6-3.6-1.2c-0.6,0.2-1.6,0.5-1.8,0.6c-0.1,0-0.3-0.1-0.3-0.2l0-1.9
		C14.5,17.1,13.9,16.2,13.4,15.2L13.4,15.2z"/>
</g>
</svg>
