<svg xmlns="http://www.w3.org/2000/svg" xmlns:xlink="http://www.w3.org/1999/xlink" viewBox="-4 0 69 58.72"><defs><style>.cls-1{fill:url(#New_Gradient_Swatch_1);}.cls-2{fill:#fff;}.cls-3{fill:url(#New_Gradient_Swatch_copy);}.cls-4{fill:url(#New_Gradient_Swatch_copy-2);}</style><linearGradient id="New_Gradient_Swatch_1" x1="39.16" y1="22.13" x2="57.49" y2="3.8" gradientUnits="userSpaceOnUse"><stop offset="0" stop-color="#fdb728"/><stop offset="1" stop-color="#ffcd23"/></linearGradient><linearGradient id="New_Gradient_Swatch_copy" x1="18.11" y1="54.22" x2="25" y2="54.22" gradientUnits="userSpaceOnUse"><stop offset="0" stop-color="#00aeef"/><stop offset="1" stop-color="#00bdf2"/></linearGradient><linearGradient id="New_Gradient_Swatch_copy-2" x1="28.3" y1="54.22" x2="35.19" y2="54.22" xlink:href="#New_Gradient_Swatch_copy"/></defs><g id="Слой_2" data-name="Слой 2"><g id="Icons"><g id="Scattered_Showers" data-name="Scattered Showers"><circle class="cls-1" cx="48.32" cy="12.96" r="12.96"/><path class="cls-2" d="M46,42.37A10.67,10.67,0,1,0,46,21h-.11A17,17,0,0,0,13.45,16H13.2a13.2,13.2,0,0,0,0,26.4"/><path class="cls-3" d="M20.11,58.72a2,2,0,0,1-1-.27,2,2,0,0,1-.73-2.73l2.88-5a2,2,0,1,1,3.47,2l-2.89,5A2,2,0,0,1,20.11,58.72Z"/><path class="cls-4" d="M30.3,58.72a2,2,0,0,1-1.73-3l2.88-5a2,2,0,1,1,3.47,2l-2.89,5A2,2,0,0,1,30.3,58.72Z"/></g></g></g></svg>