<svg width="150" height="142" viewBox="0 0 150 142" fill="none" xmlns="http://www.w3.org/2000/svg">
<path d="M94 50.377C94 71.0876 77.2107 87.877 56.5 87.877C35.7893 87.877 19 71.0876 19 50.377C19 29.6663 35.7893 12.877 56.5 12.877C77.2107 12.877 94 29.6663 94 50.377Z" fill="url(#paint0_linear_410_100)"/>
<path d="M129 85.8034C129 95.9961 120.722 104.259 110.507 104.259H43.5888C30.0097 104.259 19 93.2733 19 79.7162C19 66.1631 30.0097 55.1733 43.5888 55.1733C44.8067 55.1733 46.0037 55.2666 47.1774 55.4364C52.7303 44.4298 64.1503 36.877 77.3425 36.877C93.3053 36.877 106.678 47.9393 110.191 62.8014C110.542 64.2852 110.795 65.8054 110.94 67.3541V67.358C120.95 67.586 129 75.7558 129 85.8034Z" fill="url(#paint1_linear_410_100)" stroke="black" stroke-opacity="0.1"/>
<path d="M75 109C70.8166 111.422 68 115.943 68 121.124C68 121.309 68.0026 121.493 68.0102 121.675C68.3526 130.476 81.6474 130.476 81.9898 121.675C81.9974 121.493 82 121.309 82 121.124C82.0013 115.943 79.1834 111.422 75 109V109Z" fill="#00A3FF"/>
<defs>
<linearGradient id="paint0_linear_410_100" x1="71.6061" y1="16.3488" x2="40.0123" y2="87.8689" gradientUnits="userSpaceOnUse">
<stop stop-color="#FFD88B"/>
<stop offset="1" stop-color="#FFA900"/>
</linearGradient>
<linearGradient id="paint1_linear_410_100" x1="60.4111" y1="56.9103" x2="60.4111" y2="124.293" gradientUnits="userSpaceOnUse">
<stop offset="0.9999" stop-color="white"/>
<stop offset="1" stop-color="white" stop-opacity="0"/>
</linearGradient>
</defs>
</svg>
