<svg width="150" height="142" viewBox="0 0 150 142" fill="none" xmlns="http://www.w3.org/2000/svg">
<path d="M94 50.5C94 71.2107 77.2107 88 56.5 88C35.7893 88 19 71.2107 19 50.5C19 29.7893 35.7893 13 56.5 13C77.2107 13 94 29.7893 94 50.5Z" fill="url(#paint0_linear_101_15)"/>
<path d="M129 85.9264C129 96.1192 120.722 104.382 110.507 104.382H43.5888C30.0097 104.382 19 93.3963 19 79.8393C19 66.2861 30.0097 55.2964 43.5888 55.2964C44.8067 55.2964 46.0037 55.3897 47.1774 55.5595C52.7303 44.5529 64.1503 37 77.3425 37C93.3053 37 106.678 48.0623 110.191 62.9244C110.542 64.4083 110.795 65.9284 110.94 67.4771V67.481C120.95 67.7091 129 75.8788 129 85.9264Z" fill="url(#paint1_linear_101_15)" stroke="black" stroke-opacity="0.1"/>
<path d="M94 100C89.8166 102.422 87 106.943 87 112.124C87 112.309 87.0026 112.493 87.0102 112.675C87.3526 121.476 100.647 121.476 100.99 112.675C100.997 112.493 101 112.309 101 112.124C101.001 106.943 98.1834 102.422 94 100Z" fill="#00A3FF"/>
<path d="M60.8218 107.653C59.5567 107.536 58.4284 108.469 58.3006 109.738L57.7559 115.181L53.3318 112.024C52.3003 111.288 50.8613 111.535 50.1189 112.575C49.3765 113.616 49.6111 115.057 50.6426 115.793L55.0668 118.95L50.097 121.235C48.9387 121.768 48.423 123.139 48.945 124.297C49.467 125.456 50.8297 125.962 51.9889 125.429L56.9578 123.143L56.4121 128.585C56.2853 129.854 57.2071 130.978 58.4721 131.095C59.3206 131.174 60.1081 130.78 60.5729 130.129C60.8008 129.81 60.9509 129.427 60.9932 129.01L61.5379 123.567L65.9621 126.724C66.9936 127.46 68.4326 127.213 69.175 126.173C69.9174 125.132 69.6828 123.691 68.6512 122.955L64.2281 119.799L69.1969 117.513C69.5787 117.338 69.8904 117.071 70.1184 116.752C70.5831 116.1 70.6993 115.228 70.3498 114.451C69.8272 113.294 68.4642 112.786 67.3059 113.32L62.3361 115.605L62.8818 110.163C63.0085 108.894 62.0868 107.77 60.8218 107.653V107.653Z" fill="white" stroke="black" stroke-opacity="0.1"/>
<defs>
<linearGradient id="paint0_linear_101_15" x1="71.6061" y1="16.4719" x2="40.0123" y2="87.9919" gradientUnits="userSpaceOnUse">
<stop stop-color="#FFD88B"/>
<stop offset="1" stop-color="#FFA900"/>
</linearGradient>
<linearGradient id="paint1_linear_101_15" x1="60.4111" y1="57.0334" x2="60.4111" y2="124.416" gradientUnits="userSpaceOnUse">
<stop offset="0.9999" stop-color="white"/>
<stop offset="1" stop-color="white" stop-opacity="0"/>
</linearGradient>
</defs>
</svg>
