<svg xmlns="http://www.w3.org/2000/svg" xmlns:xlink="http://www.w3.org/1999/xlink" viewBox="0 -18 70 90"><defs><style>.cls-1{fill:url(#New_Gradient_Swatch_1);}.cls-2{fill:url(#New_Gradient_Swatch_copy_2);}.cls-3{fill:url(#New_Gradient_Swatch_copy_2-2);}.cls-4{fill:url(#New_Gradient_Swatch_copy_2-3);}.cls-5{fill:url(#New_Gradient_Swatch_copy_2-4);}.cls-6{fill:url(#New_Gradient_Swatch_copy_2-5);}.cls-7{fill:#fff;}</style><linearGradient id="New_Gradient_Swatch_1" x1="39.96" y1="22.13" x2="58.29" y2="3.8" gradientUnits="userSpaceOnUse"><stop offset="0" stop-color="#fdb728"/><stop offset="1" stop-color="#ffcd23"/></linearGradient><linearGradient id="New_Gradient_Swatch_copy_2" x1="16.33" y1="49.63" x2="20.33" y2="49.63" gradientUnits="userSpaceOnUse"><stop offset="0" stop-color="#d0e8f8"/><stop offset="1" stop-color="#e1eef9"/></linearGradient><linearGradient id="New_Gradient_Swatch_copy_2-2" x1="26.33" y1="49.63" x2="30.33" y2="49.63" xlink:href="#New_Gradient_Swatch_copy_2"/><linearGradient id="New_Gradient_Swatch_copy_2-3" x1="36.33" y1="49.63" x2="40.33" y2="49.63" xlink:href="#New_Gradient_Swatch_copy_2"/><linearGradient id="New_Gradient_Swatch_copy_2-4" x1="21.33" y1="57.91" x2="25.33" y2="57.91" xlink:href="#New_Gradient_Swatch_copy_2"/><linearGradient id="New_Gradient_Swatch_copy_2-5" x1="31.33" y1="57.91" x2="35.33" y2="57.91" xlink:href="#New_Gradient_Swatch_copy_2"/></defs><g id="Слой_2" data-name="Слой 2"><g id="Icons"><g id="Blizzard"><circle class="cls-1" cx="49.13" cy="12.96" r="12.96"/><circle class="cls-2" cx="18.33" cy="49.63" r="2"/><circle class="cls-3" cx="28.33" cy="49.63" r="2"/><circle class="cls-4" cx="38.33" cy="49.63" r="2"/><circle class="cls-5" cx="23.33" cy="57.91" r="2"/><circle class="cls-6" cx="33.33" cy="57.91" r="2"/><path class="cls-7" d="M46,39.2a10.66,10.66,0,1,0,0-21.32h-.11a17,17,0,0,0-32.44-5.07H13.2a13.2,13.2,0,1,0,0,26.39"/></g></g></g></svg>