<svg width="150" height="142" viewBox="0 0 150 142" fill="none" xmlns="http://www.w3.org/2000/svg">
<path d="M94 50.5C94 71.2107 77.2107 88 56.5 88C35.7893 88 19 71.2107 19 50.5C19 29.7893 35.7893 13 56.5 13C77.2107 13 94 29.7893 94 50.5Z" fill="url(#paint0_linear_101_15)"/>
<path d="M130 85.9265C130 96.1192 121.722 104.382 111.507 104.382H44.5888C31.0097 104.382 20 93.3964 20 79.8393C20 66.2862 31.0097 55.2964 44.5888 55.2964C45.8066 55.2964 47.0037 55.3897 48.1774 55.5595C53.7303 44.5529 65.1503 37 78.3425 37C94.3053 37 107.678 48.0624 111.191 62.9245C111.542 64.4083 111.795 65.9285 111.94 67.4772V67.4811C121.95 67.7091 130 75.8789 130 85.9265Z" fill="url(#paint1_linear_101_15)" stroke="black" stroke-opacity="0.1"/>
<path d="M75.8218 107.653C74.5567 107.536 73.4284 108.469 73.3006 109.738L72.7559 115.181L68.3318 112.024C67.3003 111.288 65.8613 111.535 65.1189 112.575C64.3765 113.616 64.6111 115.057 65.6426 115.793L70.0668 118.95L65.097 121.235C63.9387 121.768 63.423 123.139 63.945 124.297C64.467 125.456 65.8297 125.962 66.9889 125.429L71.9578 123.143L71.4121 128.585C71.2853 129.854 72.2071 130.978 73.4721 131.095C74.3206 131.174 75.1081 130.78 75.5729 130.129C75.8008 129.81 75.9509 129.427 75.9932 129.01L76.5379 123.567L80.9621 126.724C81.9936 127.46 83.4326 127.213 84.175 126.173C84.9174 125.132 84.6828 123.691 83.6512 122.955L79.2281 119.799L84.1969 117.513C84.5787 117.338 84.8904 117.071 85.1184 116.752C85.5831 116.1 85.6993 115.228 85.3498 114.451C84.8272 113.294 83.4642 112.786 82.3059 113.32L77.3361 115.605L77.8818 110.163C78.0085 108.894 77.0868 107.77 75.8218 107.653V107.653Z" fill="white" stroke="black" stroke-opacity="0.1"/>
<defs>
<linearGradient id="paint0_linear_101_15" x1="71.6061" y1="16.4719" x2="40.0123" y2="87.9919" gradientUnits="userSpaceOnUse">
<stop stop-color="#FFD88B"/>
<stop offset="1" stop-color="#FFA900"/>
</linearGradient>
<linearGradient id="paint1_linear_101_15" x1="61.4111" y1="57.0334" x2="61.4111" y2="124.416" gradientUnits="userSpaceOnUse">
<stop offset="0.9999" stop-color="white"/>
<stop offset="1" stop-color="white" stop-opacity="0"/>
</linearGradient>
</defs>
</svg>
