<svg width="150" height="142" viewBox="0 0 150 142" fill="none" xmlns="http://www.w3.org/2000/svg">
<path d="M94 50.5C94 71.2107 77.2107 88 56.5 88C35.7893 88 19 71.2107 19 50.5C19 29.7893 35.7893 13 56.5 13C77.2107 13 94 29.7893 94 50.5Z" fill="url(#paint0_linear_101_15)"/>
<path d="M129 85.9264C129 96.1192 120.722 104.382 110.507 104.382H43.5888C30.0097 104.382 19 93.3963 19 79.8393C19 66.2861 30.0097 55.2964 43.5888 55.2964C44.8067 55.2964 46.0037 55.3897 47.1774 55.5595C52.7303 44.5529 64.1503 37 77.3425 37C93.3053 37 106.678 48.0623 110.191 62.9244C110.542 64.4083 110.795 65.9284 110.94 67.4771V67.481C120.95 67.7091 129 75.8788 129 85.9264Z" fill="url(#paint1_linear_101_15)" stroke="black" stroke-opacity="0.1"/>
<path d="M94.8218 108.653C93.5567 108.536 92.4284 109.469 92.3006 110.738L91.7559 116.181L87.3318 113.024C86.3003 112.288 84.8613 112.535 84.1189 113.575C83.3765 114.616 83.6111 116.057 84.6426 116.793L89.0668 119.95L84.097 122.235C82.9387 122.768 82.423 124.139 82.945 125.297C83.467 126.456 84.8297 126.962 85.9889 126.429L90.9578 124.143L90.4121 129.585C90.2853 130.854 91.2071 131.978 92.4721 132.095C93.3206 132.174 94.1081 131.78 94.5729 131.129C94.8008 130.81 94.9509 130.427 94.9932 130.01L95.5379 124.567L99.9621 127.724C100.994 128.46 102.433 128.213 103.175 127.173C103.917 126.132 103.683 124.691 102.651 123.955L98.2281 120.799L103.197 118.513C103.579 118.338 103.89 118.071 104.118 117.752C104.583 117.1 104.699 116.228 104.35 115.451C103.827 114.294 102.464 113.786 101.306 114.32L96.3361 116.605L96.8818 111.163C97.0085 109.894 96.0868 108.77 94.8218 108.653V108.653Z" fill="white" stroke="black" stroke-opacity="0.1"/>
<path d="M60.8218 107.653C59.5567 107.536 58.4284 108.469 58.3006 109.738L57.7559 115.181L53.3318 112.024C52.3003 111.288 50.8613 111.535 50.1189 112.575C49.3765 113.616 49.6111 115.057 50.6426 115.793L55.0668 118.95L50.097 121.235C48.9387 121.768 48.423 123.139 48.945 124.297C49.467 125.456 50.8297 125.962 51.9889 125.429L56.9578 123.143L56.4121 128.585C56.2853 129.854 57.2071 130.978 58.4721 131.095C59.3206 131.174 60.1081 130.78 60.5729 130.129C60.8008 129.81 60.9509 129.427 60.9932 129.01L61.5379 123.567L65.9621 126.724C66.9936 127.46 68.4326 127.213 69.175 126.173C69.9174 125.132 69.6828 123.691 68.6512 122.955L64.2281 119.799L69.1969 117.513C69.5787 117.338 69.8904 117.071 70.1184 116.752C70.5831 116.1 70.6993 115.228 70.3498 114.451C69.8272 113.294 68.4642 112.786 67.3059 113.32L62.3361 115.605L62.8818 110.163C63.0085 108.894 62.0868 107.77 60.8218 107.653V107.653Z" fill="white" stroke="black" stroke-opacity="0.1"/>
<defs>
<linearGradient id="paint0_linear_101_15" x1="71.6061" y1="16.4719" x2="40.0123" y2="87.9919" gradientUnits="userSpaceOnUse">
<stop stop-color="#FFD88B"/>
<stop offset="1" stop-color="#FFA900"/>
</linearGradient>
<linearGradient id="paint1_linear_101_15" x1="60.4111" y1="57.0334" x2="60.4111" y2="124.416" gradientUnits="userSpaceOnUse">
<stop offset="0.9999" stop-color="white"/>
<stop offset="1" stop-color="white" stop-opacity="0"/>
</linearGradient>
</defs>
</svg>
