<svg width="150" height="142" viewBox="0 0 150 142" fill="none" xmlns="http://www.w3.org/2000/svg">
<path d="M94 50.5C94 71.2107 77.2107 88 56.5 88C35.7893 88 19 71.2107 19 50.5C19 29.7893 35.7893 13 56.5 13C77.2107 13 94 29.7893 94 50.5Z" fill="url(#paint0_linear_101_15)"/>
<path d="M129 85.9264C129 96.1192 120.722 104.382 110.507 104.382H43.5888C30.0097 104.382 19 93.3963 19 79.8393C19 66.2861 30.0097 55.2964 43.5888 55.2964C44.8067 55.2964 46.0037 55.3897 47.1774 55.5595C52.7303 44.5529 64.1503 37 77.3425 37C93.3053 37 106.678 48.0623 110.191 62.9244C110.542 64.4083 110.795 65.9284 110.94 67.4771V67.481C120.95 67.7091 129 75.8788 129 85.9264Z" fill="url(#paint1_linear_101_15)" stroke="black" stroke-opacity="0.1"/>
<path d="M58 109C53.8166 111.422 51 115.943 51 121.124C51 121.309 51.0026 121.493 51.0102 121.675C51.3526 130.476 64.6474 130.476 64.9898 121.675C64.9974 121.493 65 121.309 65 121.124C65.0013 115.943 62.1834 111.422 58 109V109Z" fill="#00A3FF"/>
<path d="M114 62L84.2796 85.9229H91.6693L78.506 101.168H86.256L74 119.036L103.378 98.5945H95.2676L108.245 84.0139H98.9686L114 62Z" fill="url(#paint2_radial_101_15)"/>
<defs>
<linearGradient id="paint0_linear_101_15" x1="71.6061" y1="16.4719" x2="40.0123" y2="87.9919" gradientUnits="userSpaceOnUse">
<stop stop-color="#FFD88B"/>
<stop offset="1" stop-color="#FFA900"/>
</linearGradient>
<linearGradient id="paint1_linear_101_15" x1="60.4111" y1="57.0334" x2="60.4111" y2="124.416" gradientUnits="userSpaceOnUse">
<stop offset="0.9999" stop-color="white"/>
<stop offset="1" stop-color="white" stop-opacity="0"/>
</linearGradient>
<radialGradient id="paint2_radial_101_15" cx="0" cy="0" r="1" gradientUnits="userSpaceOnUse" gradientTransform="translate(94 90.5181) rotate(90) scale(39.6941 27.8378)">
<stop stop-color="#FFD88B"/>
<stop offset="1" stop-color="#FFA900"/>
</radialGradient>
</defs>
</svg>
