<svg width="150" height="142" viewBox="0 0 150 142" fill="none" xmlns="http://www.w3.org/2000/svg">
<path d="M94 50.377C94 71.0876 77.2107 87.877 56.5 87.877C35.7893 87.877 19 71.0876 19 50.377C19 29.6663 35.7893 12.877 56.5 12.877C77.2107 12.877 94 29.6663 94 50.377Z" fill="url(#paint0_linear_410_128)"/>
<path d="M129 76.8034C129 86.9961 120.722 95.2592 110.507 95.2592H43.5888C30.0097 95.2592 19 84.2733 19 70.7162C19 57.1631 30.0097 46.1733 43.5888 46.1733C44.8067 46.1733 46.0037 46.2666 47.1774 46.4364C52.7303 35.4298 64.1503 27.877 77.3425 27.877C93.3053 27.877 106.678 38.9393 110.191 53.8014C110.542 55.2852 110.795 56.8054 110.94 58.3541V58.358C120.95 58.586 129 66.7558 129 76.8034Z" fill="url(#paint1_linear_410_128)" stroke="black" stroke-opacity="0.1"/>
<path d="M89 94.5641C89 100.124 84.4847 104.631 78.9128 104.631H42.4121C35.0053 104.631 29 98.6386 29 91.2439C29 83.8512 35.0053 77.8568 42.4121 77.8568C43.0764 77.8568 43.7293 77.9077 44.3695 78.0003C47.3983 71.9967 53.6274 67.877 60.8232 67.877C69.5302 67.877 76.8244 73.911 78.7407 82.0176C78.9319 82.827 79.07 83.6561 79.1493 84.5009V84.503C84.6093 84.6274 89 89.0836 89 94.5641Z" fill="url(#paint2_linear_410_128)" stroke="black" stroke-opacity="0.1"/>
<defs>
<linearGradient id="paint0_linear_410_128" x1="71.6061" y1="16.3488" x2="40.0123" y2="87.8689" gradientUnits="userSpaceOnUse">
<stop stop-color="#FFD88B"/>
<stop offset="1" stop-color="#FFA900"/>
</linearGradient>
<linearGradient id="paint1_linear_410_128" x1="60.4111" y1="47.9103" x2="60.4111" y2="115.293" gradientUnits="userSpaceOnUse">
<stop offset="0.9999" stop-color="white"/>
<stop offset="1" stop-color="white" stop-opacity="0"/>
</linearGradient>
<linearGradient id="paint2_linear_410_128" x1="51.5879" y1="78.8043" x2="51.5879" y2="115.558" gradientUnits="userSpaceOnUse">
<stop offset="0.9999" stop-color="white"/>
<stop offset="1" stop-color="white" stop-opacity="0"/>
</linearGradient>
</defs>
</svg>
