<svg xmlns="http://www.w3.org/2000/svg" xmlns:xlink="http://www.w3.org/1999/xlink" viewBox="0 -10 70 90"><defs><style>.cls-1{fill:url(#New_Gradient_Swatch_1);}.cls-2{fill:#fff;}.cls-3{fill:url(#New_Gradient_Swatch_copy_2);}.cls-4{fill:url(#New_Gradient_Swatch_copy_2-2);}.cls-5{fill:url(#New_Gradient_Swatch_copy_2-3);}.cls-6{fill:url(#New_Gradient_Swatch_copy_2-4);}.cls-7{fill:url(#New_Gradient_Swatch_copy);}.cls-8{fill:url(#New_Gradient_Swatch_copy-2);}</style><linearGradient id="New_Gradient_Swatch_1" x1="38.98" y1="22.13" x2="57.32" y2="3.8" gradientUnits="userSpaceOnUse"><stop offset="0" stop-color="#fdb728"/><stop offset="1" stop-color="#ffcd23"/></linearGradient><linearGradient id="New_Gradient_Swatch_copy_2" x1="38.75" y1="42.62" x2="59.07" y2="22.3" gradientUnits="userSpaceOnUse"><stop offset="0" stop-color="#d0e8f8"/><stop offset="1" stop-color="#e1eef9"/></linearGradient><linearGradient id="New_Gradient_Swatch_copy_2-2" x1="33.19" y1="49.41" x2="37.19" y2="49.41" xlink:href="#New_Gradient_Swatch_copy_2"/><linearGradient id="New_Gradient_Swatch_copy_2-3" x1="43.19" y1="49.41" x2="47.19" y2="49.41" xlink:href="#New_Gradient_Swatch_copy_2"/><linearGradient id="New_Gradient_Swatch_copy_2-4" x1="29.19" y1="57.52" x2="33.19" y2="57.52" xlink:href="#New_Gradient_Swatch_copy_2"/><linearGradient id="New_Gradient_Swatch_copy" x1="20.74" y1="51.91" x2="27.63" y2="51.91" gradientUnits="userSpaceOnUse"><stop offset="0" stop-color="#00aeef"/><stop offset="1" stop-color="#00bdf2"/></linearGradient><linearGradient id="New_Gradient_Swatch_copy-2" x1="10.7" y1="51.91" x2="17.59" y2="51.91" xlink:href="#New_Gradient_Swatch_copy"/></defs><g id="Слой_2" data-name="Слой 2"><g id="Icons"><g id="Sleet"><circle class="cls-1" cx="48.15" cy="12.96" r="12.96"/><path class="cls-2" d="M46,40.07a10.67,10.67,0,1,0,0-21.33h-.11a17,17,0,0,0-32.44-5.06H13.2a13.2,13.2,0,0,0,0,26.4"/><path class="cls-3" d="M60.22,40.07a6.7,6.7,0,1,0,0-13.4h-.07a10.69,10.69,0,0,0-20.37-3.19h-.16a8.29,8.29,0,1,0,0,16.58"/><circle class="cls-4" cx="35.19" cy="49.41" r="2"/><circle class="cls-5" cx="45.19" cy="49.41" r="2"/><circle class="cls-6" cx="31.19" cy="57.52" r="2"/><path class="cls-7" d="M22.74,56.41a2,2,0,0,1-1.73-3l2.89-5a2,2,0,1,1,3.46,2l-2.88,5A2,2,0,0,1,22.74,56.41Z"/><path class="cls-8" d="M12.7,56.41a2,2,0,0,1-1.73-3l2.89-5a2,2,0,1,1,3.46,2l-2.88,5A2,2,0,0,1,12.7,56.41Z"/></g></g></g></svg>