<svg xmlns="http://www.w3.org/2000/svg" xmlns:xlink="http://www.w3.org/1999/xlink" viewBox="0 0 66.92 60.22"><defs><style>.cls-1{fill:url(#New_Gradient_Swatch_1);}.cls-2{fill:#fff;}.cls-3{fill:url(#New_Gradient_Swatch_copy_2);}.cls-4{fill:url(#New_Gradient_Swatch_copy_2-2);}.cls-5{fill:url(#New_Gradient_Swatch_copy_2-3);}.cls-6{fill:url(#New_Gradient_Swatch_copy_2-4);}.cls-7{fill:url(#New_Gradient_Swatch_copy_2-5);}</style><linearGradient id="New_Gradient_Swatch_1" x1="39.96" y1="22.13" x2="58.29" y2="3.8" gradientUnits="userSpaceOnUse"><stop offset="0" stop-color="#fdb728"/><stop offset="1" stop-color="#ffcd23"/></linearGradient><linearGradient id="New_Gradient_Swatch_copy_2" x1="38.75" y1="43.33" x2="59.07" y2="23" gradientUnits="userSpaceOnUse"><stop offset="0" stop-color="#d0e8f8"/><stop offset="1" stop-color="#e1eef9"/></linearGradient><linearGradient id="New_Gradient_Swatch_copy_2-2" x1="29.06" y1="50.11" x2="33.06" y2="50.11" xlink:href="#New_Gradient_Swatch_copy_2"/><linearGradient id="New_Gradient_Swatch_copy_2-3" x1="39.06" y1="50.11" x2="43.06" y2="50.11" xlink:href="#New_Gradient_Swatch_copy_2"/><linearGradient id="New_Gradient_Swatch_copy_2-4" x1="25.06" y1="58.22" x2="29.06" y2="58.22" xlink:href="#New_Gradient_Swatch_copy_2"/><linearGradient id="New_Gradient_Swatch_copy_2-5" x1="19.61" y1="50.11" x2="23.61" y2="50.11" xlink:href="#New_Gradient_Swatch_copy_2"/></defs><g id="Слой_2" data-name="Слой 2"><g id="Icons"><g id="Sleet"><circle class="cls-1" cx="49.13" cy="12.96" r="12.96"/><path class="cls-2" d="M46,40.77a10.67,10.67,0,1,0,0-21.33h-.11a17,17,0,0,0-32.44-5.07H13.2a13.2,13.2,0,0,0,0,26.4"/><path class="cls-3" d="M60.22,40.77a6.7,6.7,0,1,0,0-13.39h-.07A10.69,10.69,0,0,0,39.78,24.2h-.16a8.29,8.29,0,1,0,0,16.58"/><circle class="cls-4" cx="31.06" cy="50.11" r="2"/><circle class="cls-5" cx="41.06" cy="50.11" r="2"/><circle class="cls-6" cx="27.06" cy="58.22" r="2"/><circle class="cls-7" cx="21.61" cy="50.11" r="2"/></g></g></g></svg>