<svg width="150" height="142" viewBox="0 0 150 142" fill="none" xmlns="http://www.w3.org/2000/svg">
<path d="M94 50.5C94 71.2107 77.2107 88 56.5 88C35.7893 88 19 71.2107 19 50.5C19 29.7893 35.7893 13 56.5 13C77.2107 13 94 29.7893 94 50.5Z" fill="url(#paint0_linear_101_15)"/>
<path d="M129 76.9264C129 87.1192 120.722 95.3822 110.507 95.3822H43.5888C30.0097 95.3822 19 84.3963 19 70.8393C19 57.2861 30.0097 46.2964 43.5888 46.2964C44.8067 46.2964 46.0037 46.3897 47.1774 46.5595C52.7303 35.5529 64.1503 28 77.3425 28C93.3053 28 106.678 39.0623 110.191 53.9244C110.542 55.4083 110.795 56.9284 110.94 58.4771V58.481C120.95 58.7091 129 66.8788 129 76.9264Z" fill="url(#paint1_linear_101_15)" stroke="black" stroke-opacity="0.1"/>
<path d="M89 94.6872C89 100.247 84.4847 104.754 78.9128 104.754H42.4121C35.0053 104.754 29 98.7617 29 91.3669C29 83.9743 35.0053 77.9799 42.4121 77.9799C43.0764 77.9799 43.7293 78.0308 44.3695 78.1234C47.3983 72.1198 53.6274 68 60.8232 68C69.5302 68 76.8244 74.034 78.7407 82.1406C78.9319 82.95 79.07 83.7792 79.1493 84.6239V84.626C84.6093 84.7504 89 89.2067 89 94.6872Z" fill="url(#paint2_linear_101_15)" stroke="black" stroke-opacity="0.1"/>
<path d="M58 109C53.8166 111.422 51 115.943 51 121.124C51 121.309 51.0026 121.493 51.0102 121.675C51.3526 130.476 64.6474 130.476 64.9898 121.675C64.9974 121.493 65 121.309 65 121.124C65.0013 115.943 62.1834 111.422 58 109V109Z" fill="#00A3FF"/>
<path d="M94 100C89.8166 102.422 87 106.943 87 112.124C87 112.309 87.0026 112.493 87.0102 112.675C87.3526 121.476 100.647 121.476 100.99 112.675C100.997 112.493 101 112.309 101 112.124C101.001 106.943 98.1834 102.422 94 100V100Z" fill="#00A3FF"/>
<defs>
<linearGradient id="paint0_linear_101_15" x1="71.6061" y1="16.4719" x2="40.0123" y2="87.9919" gradientUnits="userSpaceOnUse">
<stop stop-color="#FFD88B"/>
<stop offset="1" stop-color="#FFA900"/>
</linearGradient>
<linearGradient id="paint1_linear_101_15" x1="60.4111" y1="48.0334" x2="60.4111" y2="115.416" gradientUnits="userSpaceOnUse">
<stop offset="0.9999" stop-color="white"/>
<stop offset="1" stop-color="white" stop-opacity="0"/>
</linearGradient>
<linearGradient id="paint2_linear_101_15" x1="51.5879" y1="78.9273" x2="51.5879" y2="115.681" gradientUnits="userSpaceOnUse">
<stop offset="0.9999" stop-color="white"/>
<stop offset="1" stop-color="white" stop-opacity="0"/>
</linearGradient>
</defs>
</svg>
