<svg xmlns="http://www.w3.org/2000/svg" xmlns:xlink="http://www.w3.org/1999/xlink" viewBox="0 -10 70 90"><defs><style>.cls-1{fill:url(#New_Gradient_Swatch_1);}.cls-2{fill:#fff;}.cls-3{fill:url(#New_Gradient_Swatch_copy_2);}.cls-4{fill:url(#New_Gradient_Swatch_copy);}.cls-5{fill:url(#New_Gradient_Swatch_copy-2);}.cls-6{fill:url(#New_Gradient_Swatch_copy_2-2);}.cls-7{fill:url(#New_Gradient_Swatch_copy_2-3);}.cls-8{fill:url(#New_Gradient_Swatch_copy_2-4);}</style><linearGradient id="New_Gradient_Swatch_1" x1="39.96" y1="22.13" x2="58.29" y2="3.8" gradientUnits="userSpaceOnUse"><stop offset="0" stop-color="#fdb728"/><stop offset="1" stop-color="#ffcd23"/></linearGradient><linearGradient id="New_Gradient_Swatch_copy_2" x1="38.75" y1="43.33" x2="59.07" y2="23" gradientUnits="userSpaceOnUse"><stop offset="0" stop-color="#d0e8f8"/><stop offset="1" stop-color="#e1eef9"/></linearGradient><linearGradient id="New_Gradient_Swatch_copy" x1="4.81" y1="55.74" x2="15.31" y2="55.74" gradientUnits="userSpaceOnUse"><stop offset="0" stop-color="#00aeef"/><stop offset="1" stop-color="#00bdf2"/></linearGradient><linearGradient id="New_Gradient_Swatch_copy-2" x1="11.95" y1="58.78" x2="25.96" y2="58.78" xlink:href="#New_Gradient_Swatch_copy"/><linearGradient id="New_Gradient_Swatch_copy_2-2" x1="33.19" y1="50.11" x2="37.19" y2="50.11" xlink:href="#New_Gradient_Swatch_copy_2"/><linearGradient id="New_Gradient_Swatch_copy_2-3" x1="43.19" y1="50.11" x2="47.19" y2="50.11" xlink:href="#New_Gradient_Swatch_copy_2"/><linearGradient id="New_Gradient_Swatch_copy_2-4" x1="29.19" y1="58.22" x2="33.19" y2="58.22" xlink:href="#New_Gradient_Swatch_copy_2"/></defs><g id="Слой_2" data-name="Слой 2"><g id="Icons"><g id="Sleet"><circle class="cls-1" cx="49.13" cy="12.96" r="12.96"/><path class="cls-2" d="M46,40.77a10.67,10.67,0,1,0,0-21.33h-.11a17,17,0,0,0-32.44-5.07H13.2a13.2,13.2,0,0,0,0,26.4"/><path class="cls-3" d="M60.22,40.77a6.7,6.7,0,1,0,0-13.39h-.07A10.69,10.69,0,0,0,39.78,24.2h-.16a8.29,8.29,0,1,0,0,16.58"/><path class="cls-4" d="M6.81,63.37a1.87,1.87,0,0,1-1-.27,2,2,0,0,1-.74-2.73l6.5-11.25a2,2,0,1,1,3.47,2L8.55,62.37A2,2,0,0,1,6.81,63.37Z"/><path class="cls-5" d="M14,69.44a2,2,0,0,1-1-.27,2,2,0,0,1-.74-2.73l10-17.32a2,2,0,1,1,3.47,2l-10,17.32A2,2,0,0,1,14,69.44Z"/><circle class="cls-6" cx="35.19" cy="50.11" r="2"/><circle class="cls-7" cx="45.19" cy="50.11" r="2"/><circle class="cls-8" cx="31.19" cy="58.22" r="2"/></g></g></g></svg>