<svg width="150" height="142" viewBox="0 0 150 142" fill="none" xmlns="http://www.w3.org/2000/svg">
<path d="M95 55.5C95 76.2107 78.2107 93 57.5 93C36.7893 93 20 76.2107 20 55.5C20 34.7893 36.7893 18 57.5 18C78.2107 18 95 34.7893 95 55.5Z" fill="url(#paint0_linear_101_15)"/>
<path d="M130 74.9265C130 85.1192 121.722 93.3823 111.507 93.3823H44.5888C31.0097 93.3823 20 82.3964 20 68.8393C20 55.2862 31.0097 44.2964 44.5888 44.2964C45.8066 44.2964 47.0037 44.3897 48.1774 44.5595C53.7303 33.5529 65.1503 26 78.3425 26C94.3053 26 107.678 37.0624 111.191 51.9245C111.542 53.4083 111.795 54.9285 111.94 56.4772V56.4811C121.95 56.7091 130 64.8789 130 74.9265Z" fill="url(#paint1_linear_101_15)" stroke="black" stroke-opacity="0.1"/>
<path d="M89 94.6872C89 100.247 84.4847 104.754 78.9128 104.754H42.4121C35.0053 104.754 29 98.7617 29 91.3669C29 83.9743 35.0053 77.9799 42.4121 77.9799C43.0764 77.9799 43.7293 78.0308 44.3695 78.1234C47.3983 72.1198 53.6274 68 60.8232 68C69.5302 68 76.8244 74.034 78.7407 82.1406C78.9319 82.95 79.07 83.7792 79.1493 84.6239V84.626C84.6093 84.7504 89 89.2067 89 94.6872Z" fill="url(#paint2_linear_101_15)" stroke="black" stroke-opacity="0.1"/>
<path d="M101 88C96.8166 90.4219 94 94.9425 94 100.124C94 100.309 94.0026 100.493 94.0102 100.675C94.3526 109.476 107.647 109.476 107.99 100.675C107.997 100.493 108 100.309 108 100.124C108.001 94.9425 105.183 90.4219 101 88Z" fill="#00A3FF"/>
<path d="M57 104C52.8166 106.422 50 110.943 50 116.124C50 116.309 50.0026 116.493 50.0102 116.675C50.3526 125.476 63.6474 125.476 63.9898 116.675C63.9974 116.493 64 116.309 64 116.124C64.0013 110.943 61.1834 106.422 57 104V104Z" fill="#00A3FF"/>
<path d="M79.8218 92.6527C78.5567 92.5358 77.4284 93.4692 77.3006 94.738L76.7559 100.181L72.3318 97.0241C71.3003 96.288 69.8613 96.5349 69.1189 97.5753C68.3765 98.6157 68.6111 100.057 69.6426 100.793L74.0668 103.95L69.097 106.235C67.9387 106.768 67.423 108.139 67.945 109.297C68.467 110.456 69.8297 110.962 70.9889 110.429L75.9578 108.143L75.4121 113.585C75.2853 114.854 76.2071 115.978 77.4721 116.095C78.3206 116.174 79.1081 115.78 79.5729 115.129C79.8008 114.81 79.9509 114.427 79.9932 114.01L80.5379 108.567L84.9621 111.724C85.9936 112.46 87.4326 112.213 88.175 111.173C88.9174 110.132 88.6828 108.691 87.6512 107.955L83.2281 104.799L88.1969 102.513C88.5787 102.338 88.8904 102.071 89.1184 101.752C89.5831 101.1 89.6993 100.228 89.3498 99.4514C88.8272 98.2941 87.4642 97.7865 86.3059 98.3199L81.3361 100.605L81.8818 95.1631C82.0085 93.8936 81.0868 92.7696 79.8218 92.6527V92.6527Z" fill="white" stroke="black" stroke-opacity="0.1"/>
<defs>
<linearGradient id="paint0_linear_101_15" x1="72.6061" y1="21.4719" x2="41.0123" y2="92.9919" gradientUnits="userSpaceOnUse">
<stop stop-color="#FFD88B"/>
<stop offset="1" stop-color="#FFA900"/>
</linearGradient>
<linearGradient id="paint1_linear_101_15" x1="61.4111" y1="46.0334" x2="61.4111" y2="113.416" gradientUnits="userSpaceOnUse">
<stop offset="0.9999" stop-color="white"/>
<stop offset="1" stop-color="white" stop-opacity="0"/>
</linearGradient>
<linearGradient id="paint2_linear_101_15" x1="51.5879" y1="78.9273" x2="51.5879" y2="115.681" gradientUnits="userSpaceOnUse">
<stop offset="0.9999" stop-color="white"/>
<stop offset="1" stop-color="white" stop-opacity="0"/>
</linearGradient>
</defs>
</svg>
