<svg width="150" height="142" viewBox="0 0 150 142" fill="none" xmlns="http://www.w3.org/2000/svg">
<path d="M94 50.5C94 71.2107 77.2107 88 56.5 88C35.7893 88 19 71.2107 19 50.5C19 29.7893 35.7893 13 56.5 13C77.2107 13 94 29.7893 94 50.5Z" fill="url(#paint0_linear_101_15)"/>
<path d="M129 76.9264C129 87.1192 120.722 95.3822 110.507 95.3822H43.5888C30.0097 95.3822 19 84.3963 19 70.8393C19 57.2861 30.0097 46.2964 43.5888 46.2964C44.8067 46.2964 46.0037 46.3897 47.1774 46.5595C52.7303 35.5529 64.1503 28 77.3425 28C93.3053 28 106.678 39.0623 110.191 53.9244C110.542 55.4083 110.795 56.9284 110.94 58.4771V58.481C120.95 58.7091 129 66.8788 129 76.9264Z" fill="url(#paint1_linear_101_15)" stroke="black" stroke-opacity="0.1"/>
<path d="M89 94.6872C89 100.247 84.4847 104.754 78.9128 104.754H42.4121C35.0053 104.754 29 98.7617 29 91.3669C29 83.9743 35.0053 77.9799 42.4121 77.9799C43.0764 77.9799 43.7293 78.0308 44.3695 78.1234C47.3983 72.1198 53.6274 68 60.8232 68C69.5302 68 76.8244 74.034 78.7407 82.1406C78.9319 82.95 79.07 83.7792 79.1493 84.6239V84.626C84.6093 84.7504 89 89.2067 89 94.6872Z" fill="url(#paint2_linear_101_15)" stroke="black" stroke-opacity="0.1"/>
<path d="M110.822 98.6527C109.557 98.5358 108.428 99.4692 108.301 100.738L107.756 106.181L103.332 103.024C102.3 102.288 100.861 102.535 100.119 103.575C99.3765 104.616 99.6111 106.057 100.643 106.793L105.067 109.95L100.097 112.235C98.9387 112.768 98.423 114.139 98.945 115.297C99.467 116.456 100.83 116.962 101.989 116.429L106.958 114.143L106.412 119.585C106.285 120.854 107.207 121.978 108.472 122.095C109.321 122.174 110.108 121.78 110.573 121.129C110.801 120.81 110.951 120.427 110.993 120.01L111.538 114.567L115.962 117.724C116.994 118.46 118.433 118.213 119.175 117.173C119.917 116.132 119.683 114.691 118.651 113.955L114.228 110.799L119.197 108.513C119.579 108.338 119.89 108.071 120.118 107.752C120.583 107.1 120.699 106.228 120.35 105.451C119.827 104.294 118.464 103.786 117.306 104.32L112.336 106.605L112.882 101.163C113.009 99.8936 112.087 98.7696 110.822 98.6527V98.6527Z" fill="white" stroke="black" stroke-opacity="0.1"/>
<path d="M75.8218 107.653C74.5567 107.536 73.4284 108.469 73.3006 109.738L72.7559 115.181L68.3318 112.024C67.3003 111.288 65.8613 111.535 65.1189 112.575C64.3765 113.616 64.6111 115.057 65.6426 115.793L70.0668 118.95L65.097 121.235C63.9387 121.768 63.423 123.139 63.945 124.297C64.467 125.456 65.8297 125.962 66.9889 125.429L71.9578 123.143L71.4121 128.585C71.2853 129.854 72.2071 130.978 73.4721 131.095C74.3206 131.174 75.1081 130.78 75.5729 130.129C75.8008 129.81 75.9509 129.427 75.9932 129.01L76.5379 123.567L80.9621 126.724C81.9936 127.46 83.4326 127.213 84.175 126.173C84.9174 125.132 84.6828 123.691 83.6512 122.955L79.2281 119.799L84.1969 117.513C84.5787 117.338 84.8904 117.071 85.1184 116.752C85.5831 116.1 85.6993 115.228 85.3498 114.451C84.8272 113.294 83.4642 112.786 82.3059 113.32L77.3361 115.605L77.8818 110.163C78.0085 108.894 77.0868 107.77 75.8218 107.653V107.653Z" fill="white" stroke="black" stroke-opacity="0.1"/>
<defs>
<linearGradient id="paint0_linear_101_15" x1="71.6061" y1="16.4719" x2="40.0123" y2="87.9919" gradientUnits="userSpaceOnUse">
<stop stop-color="#FFD88B"/>
<stop offset="1" stop-color="#FFA900"/>
</linearGradient>
<linearGradient id="paint1_linear_101_15" x1="60.4111" y1="48.0334" x2="60.4111" y2="115.416" gradientUnits="userSpaceOnUse">
<stop offset="0.9999" stop-color="white"/>
<stop offset="1" stop-color="white" stop-opacity="0"/>
</linearGradient>
<linearGradient id="paint2_linear_101_15" x1="51.5879" y1="78.9273" x2="51.5879" y2="115.681" gradientUnits="userSpaceOnUse">
<stop offset="0.9999" stop-color="white"/>
<stop offset="1" stop-color="white" stop-opacity="0"/>
</linearGradient>
</defs>
</svg>
