<svg width="150" height="142" viewBox="0 0 150 142" fill="none" xmlns="http://www.w3.org/2000/svg">
<path d="M129 76.8034C129 86.9961 120.722 95.2592 110.507 95.2592H43.5888C30.0097 95.2592 19 84.2733 19 70.7162C19 57.1631 30.0097 46.1733 43.5888 46.1733C44.8067 46.1733 46.0037 46.2666 47.1774 46.4364C52.7303 35.4298 64.1503 27.877 77.3425 27.877C93.3053 27.877 106.678 38.9393 110.191 53.8014C110.542 55.2852 110.795 56.8054 110.94 58.3541V58.358C120.95 58.586 129 66.7558 129 76.8034Z" fill="url(#paint0_linear_415_140)" stroke="black" stroke-opacity="0.1"/>
<path d="M89 94.5641C89 100.124 84.4847 104.631 78.9128 104.631H42.4121C35.0053 104.631 29 98.6386 29 91.2439C29 83.8512 35.0053 77.8568 42.4121 77.8568C43.0764 77.8568 43.7293 77.9077 44.3695 78.0003C47.3983 71.9967 53.6274 67.877 60.8232 67.877C69.5302 67.877 76.8244 73.911 78.7407 82.0176C78.9319 82.827 79.07 83.6561 79.1493 84.5009V84.503C84.6093 84.6274 89 89.0836 89 94.5641Z" fill="url(#paint1_linear_415_140)" stroke="black" stroke-opacity="0.1"/>
<path d="M94 99.877C89.8166 102.299 87 106.819 87 112C87 112.186 87.0026 112.37 87.0102 112.552C87.3526 121.353 100.647 121.353 100.99 112.552C100.997 112.37 101 112.186 101 112C101.001 106.819 98.1834 102.299 94 99.877V99.877Z" fill="#00A3FF"/>
<path d="M60.8218 107.53C59.5567 107.413 58.4284 108.346 58.3006 109.615L57.7559 115.058L53.3318 111.901C52.3003 111.165 50.8613 111.412 50.1189 112.452C49.3765 113.493 49.6111 114.934 50.6426 115.67L55.0668 118.827L50.097 121.112C48.9387 121.645 48.423 123.016 48.945 124.174C49.467 125.332 50.8297 125.839 51.9889 125.306L56.9578 123.02L56.4121 128.462C56.2853 129.731 57.2071 130.855 58.4721 130.972C59.3206 131.051 60.1081 130.657 60.5729 130.006C60.8008 129.687 60.9509 129.304 60.9932 128.887L61.5379 123.444L65.9621 126.601C66.9936 127.337 68.4326 127.09 69.175 126.05C69.9174 125.009 69.6828 123.568 68.6512 122.832L64.2281 119.676L69.1969 117.39C69.5787 117.215 69.8904 116.948 70.1184 116.629C70.5831 115.977 70.6993 115.104 70.3498 114.328C69.8272 113.171 68.4642 112.663 67.3059 113.197L62.3361 115.482L62.8818 110.04C63.0085 108.771 62.0868 107.647 60.8218 107.53V107.53Z" fill="white" stroke="black" stroke-opacity="0.1"/>
<defs>
<linearGradient id="paint0_linear_415_140" x1="60.4111" y1="47.9103" x2="60.4111" y2="115.293" gradientUnits="userSpaceOnUse">
<stop offset="0.9999" stop-color="#EBEBEB"/>
<stop offset="1" stop-color="white" stop-opacity="0"/>
</linearGradient>
<linearGradient id="paint1_linear_415_140" x1="51.5879" y1="78.8043" x2="51.5879" y2="115.558" gradientUnits="userSpaceOnUse">
<stop offset="0.9999" stop-color="#E1E1E1"/>
<stop offset="1" stop-color="white" stop-opacity="0"/>
</linearGradient>
</defs>
</svg>
