<svg width="150" height="142" viewBox="0 0 150 142" fill="none" xmlns="http://www.w3.org/2000/svg">
<path d="M130 74.9265C130 85.1192 121.722 93.3823 111.507 93.3823H44.5888C31.0097 93.3823 20 82.3964 20 68.8393C20 55.2862 31.0097 44.2964 44.5888 44.2964C45.8066 44.2964 47.0037 44.3897 48.1774 44.5595C53.7303 33.5529 65.1503 26 78.3425 26C94.3053 26 107.678 37.0624 111.191 51.9245C111.542 53.4083 111.795 54.9285 111.94 56.4772V56.4811C121.95 56.7091 130 64.8789 130 74.9265Z" fill="url(#paint0_linear_101:15)" stroke="black" stroke-opacity="0.1"/>
<path d="M89 94.6872C89 100.247 84.4847 104.754 78.9128 104.754H42.4121C35.0053 104.754 29 98.7617 29 91.3669C29 83.9743 35.0053 77.9799 42.4121 77.9799C43.0764 77.9799 43.7293 78.0308 44.3695 78.1234C47.3983 72.1198 53.6274 68 60.8232 68C69.5302 68 76.8244 74.034 78.7407 82.1406C78.9319 82.95 79.07 83.7792 79.1493 84.6239V84.626C84.6093 84.7504 89 89.2067 89 94.6872Z" fill="url(#paint1_linear_101:15)" stroke="black" stroke-opacity="0.1"/>
<path d="M84 99C79.8166 101.422 77 105.943 77 111.124C77 111.309 77.0026 111.493 77.0102 111.675C77.3526 120.476 90.6474 120.476 90.9898 111.675C90.9974 111.493 91 111.309 91 111.124C91.0013 105.943 88.1834 101.422 84 99V99Z" fill="#00A3FF"/>
<path d="M59 108C54.8166 110.422 52 114.943 52 120.124C52 120.309 52.0026 120.493 52.0102 120.675C52.3526 129.476 65.6474 129.476 65.9898 120.675C65.9974 120.493 66 120.309 66 120.124C66.0013 114.943 63.1834 110.422 59 108V108Z" fill="#00A3FF"/>
<path d="M105.399 80.8416C104.134 80.7247 103.006 81.6581 102.878 82.9269L102.334 88.3698L97.9095 85.213C96.8779 84.4769 95.4389 84.7238 94.6965 85.7642C93.9541 86.8046 94.1887 88.2456 95.2203 88.9817L99.6444 92.1385L94.6746 94.4239C93.5163 94.9573 93.0006 96.3279 93.5226 97.4862C94.0446 98.6444 95.4073 99.1505 96.5666 98.6177L101.535 96.3316L100.99 101.774C100.863 103.043 101.785 104.167 103.05 104.284C103.898 104.363 104.686 103.969 105.151 103.318C105.378 102.998 105.529 102.616 105.571 102.199L106.116 96.756L110.54 99.9129C111.571 100.649 113.01 100.402 113.753 99.3617C114.495 98.3213 114.26 96.8802 113.229 96.1441L108.806 92.988L113.775 90.702C114.156 90.5268 114.468 90.2599 114.696 89.9405C115.161 89.2892 115.277 88.4164 114.927 87.6403C114.405 86.483 113.042 85.9754 111.884 86.5088L106.914 88.7942L107.459 83.352C107.586 82.0825 106.664 80.9585 105.399 80.8416V80.8416Z" fill="white" stroke="black" stroke-opacity="0.1"/>
<path d="M47.0579 97.2615C46.8398 98.513 47.6795 99.7127 48.934 99.942L54.3155 100.922L50.8135 105.078C49.997 106.047 50.1274 107.502 51.1048 108.325C52.0823 109.149 53.5375 109.031 54.3541 108.062L57.8561 103.905L59.7348 109.043C60.1735 110.24 61.4982 110.864 62.6947 110.437C63.8911 110.01 64.505 108.692 64.067 107.494L62.1875 102.357L67.5683 103.338C68.8235 103.567 70.0179 102.738 70.2361 101.487C70.3827 100.647 70.0535 99.8306 69.4416 99.315C69.1415 99.0621 68.7725 98.8818 68.3599 98.8061L62.9784 97.8259L66.4804 93.6697C67.297 92.7006 67.1665 91.2464 66.1891 90.4229C65.2117 89.5993 63.7565 89.7174 62.9399 90.6865L59.4386 94.8418L57.5591 89.7055C57.4152 89.3108 57.1743 88.9787 56.8741 88.7258C56.2622 88.2102 55.4017 88.0243 54.6 88.3103C53.4045 88.7383 52.789 90.0561 53.2277 91.2535L55.1064 96.3908L49.7257 95.4098C48.4704 95.1814 47.276 96.0099 47.0579 97.2615V97.2615Z" fill="white" stroke="black" stroke-opacity="0.1"/>
<defs>
<linearGradient id="paint0_linear_101:15" x1="61.4111" y1="46.0334" x2="61.4111" y2="113.416" gradientUnits="userSpaceOnUse">
<stop offset="0.9999" stop-color="#E6E6E6"/>
<stop offset="1" stop-color="white" stop-opacity="0"/>
</linearGradient>
<linearGradient id="paint1_linear_101:15" x1="51.5879" y1="78.9273" x2="51.5879" y2="115.681" gradientUnits="userSpaceOnUse">
<stop offset="0.9999" stop-color="#E5E5E5"/>
<stop offset="1" stop-color="white" stop-opacity="0"/>
</linearGradient>
</defs>
</svg>
