<svg xmlns="http://www.w3.org/2000/svg" xmlns:xlink="http://www.w3.org/1999/xlink" viewBox="0 -12 70 90"><defs><style>.cls-1{fill:url(#New_Gradient_Swatch_copy);}.cls-2{fill:url(#New_Gradient_Swatch_copy_2);}.cls-3{fill:url(#New_Gradient_Swatch_copy-2);}.cls-4{fill:url(#New_Gradient_Swatch_copy-3);}</style><linearGradient id="New_Gradient_Swatch_copy" x1="42.62" y1="24.38" x2="58.22" y2="8.78" gradientUnits="userSpaceOnUse"><stop offset="0" stop-color="#00aeef"/><stop offset="1" stop-color="#00bdf2"/></linearGradient><linearGradient id="New_Gradient_Swatch_copy_2" x1="11.8" y1="48.44" x2="44.17" y2="16.08" gradientUnits="userSpaceOnUse"><stop offset="0" stop-color="#d0e8f8"/><stop offset="1" stop-color="#e1eef9"/></linearGradient><linearGradient id="New_Gradient_Swatch_copy-2" x1="18.42" y1="56.22" x2="25.31" y2="56.22" xlink:href="#New_Gradient_Swatch_copy"/><linearGradient id="New_Gradient_Swatch_copy-3" x1="28.33" y1="56.22" x2="35.22" y2="56.22" xlink:href="#New_Gradient_Swatch_copy"/></defs><g id="Слой_2" data-name="Слой 2"><g id="Icons"><g id="Scattered_Showers_Night" data-name="Scattered Showers Night"><path class="cls-1" d="M52.94,28.67A14.6,14.6,0,0,1,48.91,0a.77.77,0,0,1,.75.19.76.76,0,0,1,.19.76A13.07,13.07,0,0,0,62.41,17.66,13.17,13.17,0,0,0,66,17.15a.76.76,0,0,1,1,.94A14.67,14.67,0,0,1,52.94,28.67Z"/><path class="cls-2" d="M46,44.37A10.67,10.67,0,1,0,46,23h-.11A17,17,0,0,0,13.45,18H13.2a13.2,13.2,0,0,0,0,26.4"/><path class="cls-3" d="M20.42,60.72a2,2,0,0,1-1-.27,2,2,0,0,1-.73-2.73l2.89-5a2,2,0,1,1,3.46,2l-2.89,5A2,2,0,0,1,20.42,60.72Z"/><path class="cls-4" d="M30.33,60.72a2,2,0,0,1-1-.27,2,2,0,0,1-.73-2.73l2.89-5a2,2,0,0,1,3.46,2l-2.88,5A2,2,0,0,1,30.33,60.72Z"/></g></g></g></svg>