<svg width="150" height="142" viewBox="0 0 150 142" fill="none" xmlns="http://www.w3.org/2000/svg">
<g filter="url(#filter0_b_416_594)">
<path fill-rule="evenodd" clip-rule="evenodd" d="M91.3522 68.9397C86.8798 70.7334 81.9968 71.7203 76.8833 71.7203C55.4047 71.7203 37.9929 54.3086 37.9929 32.83C37.9929 25.587 39.973 18.8064 43.4214 13C29.108 18.7405 19 32.7447 19 49.1097C19 70.5882 36.4118 88 57.8903 88C72.1258 88 84.5748 80.3515 91.3522 68.9397Z" fill="url(#paint0_linear_416_594)"/>
</g>
<g filter="url(#filter1_b_416_594)">
<path fill-rule="evenodd" clip-rule="evenodd" d="M90.2664 69.8376C86.0882 71.3488 81.5815 72.1726 76.8833 72.1726C55.155 72.1726 37.5407 54.5583 37.5407 32.83C37.5407 25.983 39.2902 19.5434 42.3668 13.935C28.8697 19.9004 19.4522 33.4058 19.4522 49.1097C19.4522 70.3385 36.6615 87.5478 57.8903 87.5478C71.4851 87.5478 83.4319 80.4904 90.2664 69.8376ZM90.661 69.2093C86.3784 70.8321 81.7346 71.7203 76.8833 71.7203C55.4047 71.7203 37.9929 54.3086 37.9929 32.83C37.9929 25.8521 39.8307 19.3034 43.0486 13.6416C43.1709 13.4264 43.2951 13.2126 43.4214 13C43.1904 13.0926 42.9606 13.1874 42.7318 13.2843C28.7845 19.1931 19 33.0087 19 49.1097C19 70.5882 36.4118 88 57.8903 88C71.859 88 84.1077 80.6354 90.9653 69.5772C91.0962 69.3661 91.2252 69.1536 91.3522 68.9397C91.1229 69.0317 90.8925 69.1215 90.661 69.2093Z" fill="url(#paint1_linear_416_594)"/>
</g>
<path fill-rule="evenodd" clip-rule="evenodd" d="M91.3522 68.9397C86.8798 70.7334 81.9968 71.7203 76.8833 71.7203C55.4047 71.7203 37.9929 54.3086 37.9929 32.83C37.9929 25.587 39.973 18.8064 43.4214 13C29.108 18.7405 19 32.7447 19 49.1097C19 70.5882 36.4118 88 57.8903 88C72.1258 88 84.5748 80.3515 91.3522 68.9397Z" fill="url(#paint2_linear_416_594)"/>
<path d="M100.624 95.3051C100.624 102.869 94.4813 109 86.9013 109H37.2458C27.1696 109 19 100.848 19 90.7883C19 80.7314 27.1696 72.5766 37.2458 72.5766C38.1495 72.5766 39.0377 72.6458 39.9086 72.7718C44.0291 64.6045 52.5031 59 62.2922 59C74.1372 59 84.0602 67.2086 86.6672 78.2368C86.9273 79.3379 87.1152 80.4659 87.2231 81.6151V81.618C94.6509 81.7872 100.624 87.8495 100.624 95.3051Z" fill="url(#paint3_linear_416_594)" stroke="black" stroke-opacity="0.1"/>
<path d="M77.8218 111.653C76.5567 111.536 75.4284 112.469 75.3006 113.738L74.7559 119.181L70.3318 116.024C69.3003 115.288 67.8613 115.535 67.1189 116.575C66.3765 117.616 66.6111 119.057 67.6426 119.793L72.0668 122.95L67.097 125.235C65.9387 125.768 65.423 127.139 65.945 128.297C66.467 129.456 67.8297 129.962 68.9889 129.429L73.9578 127.143L73.4121 132.585C73.2853 133.854 74.2071 134.978 75.4721 135.095C76.3206 135.174 77.1081 134.78 77.5729 134.129C77.8008 133.81 77.9509 133.427 77.9932 133.01L78.5379 127.567L82.9621 130.724C83.9936 131.46 85.4326 131.213 86.175 130.173C86.9174 129.132 86.6828 127.691 85.6512 126.955L81.2281 123.799L86.1969 121.513C86.5787 121.338 86.8904 121.071 87.1184 120.752C87.5831 120.1 87.6993 119.228 87.3498 118.451C86.8272 117.294 85.4642 116.786 84.3059 117.32L79.3361 119.605L79.8818 114.163C80.0085 112.894 79.0868 111.77 77.8218 111.653V111.653Z" fill="white" stroke="black" stroke-opacity="0.1"/>
<path d="M46.8218 113.653C45.5567 113.536 44.4284 114.469 44.3006 115.738L43.7559 121.181L39.3318 118.024C38.3003 117.288 36.8613 117.535 36.1189 118.575C35.3765 119.616 35.6111 121.057 36.6426 121.793L41.0668 124.95L36.097 127.235C34.9387 127.768 34.423 129.139 34.945 130.297C35.467 131.456 36.8297 131.962 37.9889 131.429L42.9578 129.143L42.4121 134.585C42.2853 135.854 43.2071 136.978 44.4721 137.095C45.3206 137.174 46.1081 136.78 46.5729 136.129C46.8008 135.81 46.9509 135.427 46.9932 135.01L47.5379 129.567L51.9621 132.724C52.9936 133.46 54.4326 133.213 55.175 132.173C55.9174 131.132 55.6828 129.691 54.6512 128.955L50.2281 125.799L55.1969 123.513C55.5787 123.338 55.8904 123.071 56.1184 122.752C56.5831 122.1 56.6993 121.228 56.3498 120.451C55.8272 119.294 54.4642 118.786 53.3059 119.32L48.3361 121.605L48.8818 116.163C49.0085 114.894 48.0868 113.77 46.8218 113.653Z" fill="white" stroke="black" stroke-opacity="0.1"/>
<defs>
<filter id="filter0_b_416_594" x="-43.0757" y="-49.0757" width="196.503" height="199.151" filterUnits="userSpaceOnUse" color-interpolation-filters="sRGB">
<feFlood flood-opacity="0" result="BackgroundImageFix"/>
<feGaussianBlur in="BackgroundImage" stdDeviation="31.0378"/>
<feComposite in2="SourceAlpha" operator="in" result="effect1_backgroundBlur_416_594"/>
<feBlend mode="normal" in="SourceGraphic" in2="effect1_backgroundBlur_416_594" result="shape"/>
</filter>
<filter id="filter1_b_416_594" x="-43.0757" y="-49.0757" width="196.503" height="199.151" filterUnits="userSpaceOnUse" color-interpolation-filters="sRGB">
<feFlood flood-opacity="0" result="BackgroundImageFix"/>
<feGaussianBlur in="BackgroundImage" stdDeviation="31.0378"/>
<feComposite in2="SourceAlpha" operator="in" result="effect1_backgroundBlur_416_594"/>
<feBlend mode="normal" in="SourceGraphic" in2="effect1_backgroundBlur_416_594" result="shape"/>
</filter>
<linearGradient id="paint0_linear_416_594" x1="31.3187" y1="23.8476" x2="101.188" y2="54.3283" gradientUnits="userSpaceOnUse">
<stop stop-color="white"/>
<stop offset="1" stop-color="white" stop-opacity="0"/>
</linearGradient>
<linearGradient id="paint1_linear_416_594" x1="13.0438" y1="30.7156" x2="48.4305" y2="46.3068" gradientUnits="userSpaceOnUse">
<stop stop-color="white"/>
<stop offset="1" stop-color="white" stop-opacity="0"/>
</linearGradient>
<linearGradient id="paint2_linear_416_594" x1="55.1761" y1="13" x2="55.1761" y2="88" gradientUnits="userSpaceOnUse">
<stop stop-color="#FFD88B"/>
<stop offset="1" stop-color="#FFA900"/>
</linearGradient>
<linearGradient id="paint3_linear_416_594" x1="49.7285" y1="73.8655" x2="49.7285" y2="123.865" gradientUnits="userSpaceOnUse">
<stop offset="0.9999" stop-color="white"/>
<stop offset="1" stop-color="white" stop-opacity="0"/>
</linearGradient>
</defs>
</svg>
