<svg width="150" height="142" viewBox="0 0 150 142" fill="none" xmlns="http://www.w3.org/2000/svg">
<g filter="url(#filter0_b_416_442)">
<path fill-rule="evenodd" clip-rule="evenodd" d="M91.3522 68.9397C86.8798 70.7334 81.9968 71.7203 76.8833 71.7203C55.4047 71.7203 37.9929 54.3086 37.9929 32.83C37.9929 25.587 39.973 18.8064 43.4214 13C29.108 18.7405 19 32.7447 19 49.1097C19 70.5882 36.4118 88 57.8903 88C72.1258 88 84.5748 80.3515 91.3522 68.9397Z" fill="url(#paint0_linear_416_442)"/>
</g>
<g filter="url(#filter1_b_416_442)">
<path fill-rule="evenodd" clip-rule="evenodd" d="M90.2664 69.8376C86.0882 71.3488 81.5815 72.1726 76.8833 72.1726C55.155 72.1726 37.5407 54.5583 37.5407 32.83C37.5407 25.983 39.2902 19.5434 42.3668 13.935C28.8697 19.9004 19.4522 33.4058 19.4522 49.1097C19.4522 70.3385 36.6615 87.5478 57.8903 87.5478C71.4851 87.5478 83.4319 80.4904 90.2664 69.8376ZM90.661 69.2093C86.3784 70.8321 81.7346 71.7203 76.8833 71.7203C55.4047 71.7203 37.9929 54.3086 37.9929 32.83C37.9929 25.8521 39.8307 19.3034 43.0486 13.6416C43.1709 13.4264 43.2951 13.2126 43.4214 13C43.1904 13.0926 42.9606 13.1874 42.7318 13.2843C28.7845 19.1931 19 33.0087 19 49.1097C19 70.5882 36.4118 88 57.8903 88C71.859 88 84.1077 80.6354 90.9653 69.5772C91.0962 69.3661 91.2252 69.1536 91.3522 68.9397C91.1229 69.0317 90.8925 69.1215 90.661 69.2093Z" fill="url(#paint1_linear_416_442)"/>
</g>
<path fill-rule="evenodd" clip-rule="evenodd" d="M91.3522 68.9397C86.8798 70.7334 81.9968 71.7203 76.8833 71.7203C55.4047 71.7203 37.9929 54.3086 37.9929 32.83C37.9929 25.587 39.973 18.8064 43.4214 13C29.108 18.7405 19 32.7447 19 49.1097C19 70.5882 36.4118 88 57.8903 88C72.1258 88 84.5748 80.3515 91.3522 68.9397Z" fill="url(#paint2_linear_416_442)"/>
<path d="M106.624 77.3051C106.624 84.8685 100.481 91 92.9013 91H43.2458C33.1696 91 25 82.8481 25 72.7883C25 62.7314 33.1696 54.5766 43.2458 54.5766C44.1495 54.5766 45.0377 54.6458 45.9086 54.7718C50.0291 46.6045 58.5031 41 68.2922 41C80.1372 41 90.0602 49.2086 92.6672 60.2368C92.9273 61.3379 93.1152 62.4659 93.2231 63.6151V63.618C100.651 63.7872 106.624 69.8495 106.624 77.3051Z" fill="url(#paint3_linear_416_442)" stroke="black" stroke-opacity="0.1"/>
<path d="M89 94.5641C89 100.124 84.4847 104.631 78.9128 104.631H42.4121C35.0053 104.631 29 98.6386 29 91.2439C29 83.8512 35.0053 77.8568 42.4121 77.8568C43.0764 77.8568 43.7293 77.9077 44.3695 78.0003C47.3983 71.9967 53.6274 67.877 60.8232 67.877C69.5302 67.877 76.8244 73.911 78.7407 82.0176C78.9319 82.827 79.07 83.6561 79.1493 84.5009V84.503C84.6093 84.6274 89 89.0836 89 94.5641Z" fill="url(#paint4_linear_416_442)" stroke="black" stroke-opacity="0.1"/>
<path d="M94 99.877C89.8166 102.299 87 106.819 87 112C87 112.186 87.0026 112.37 87.0102 112.552C87.3526 121.353 100.647 121.353 100.99 112.552C100.997 112.37 101 112.186 101 112C101.001 106.819 98.1834 102.299 94 99.877V99.877Z" fill="#00A3FF"/>
<path d="M59.8218 108.653C58.5567 108.536 57.4284 109.469 57.3006 110.738L56.7559 116.181L52.3318 113.024C51.3003 112.288 49.8613 112.535 49.1189 113.575C48.3765 114.616 48.6111 116.057 49.6426 116.793L54.0668 119.95L49.097 122.235C47.9387 122.768 47.423 124.139 47.945 125.297C48.467 126.456 49.8297 126.962 50.9889 126.429L55.9578 124.143L55.4121 129.585C55.2853 130.854 56.2071 131.978 57.4721 132.095C58.3206 132.174 59.1081 131.78 59.5729 131.129C59.8008 130.81 59.9509 130.427 59.9932 130.01L60.5379 124.567L64.9621 127.724C65.9936 128.46 67.4326 128.213 68.175 127.173C68.9174 126.132 68.6828 124.691 67.6512 123.955L63.2281 120.799L68.1969 118.513C68.5787 118.338 68.8904 118.071 69.1184 117.752C69.5831 117.1 69.6993 116.228 69.3498 115.451C68.8272 114.294 67.4642 113.786 66.3059 114.32L61.3361 116.605L61.8818 111.163C62.0085 109.894 61.0868 108.77 59.8218 108.653V108.653Z" fill="white" stroke="black" stroke-opacity="0.1"/>
<defs>
<filter id="filter0_b_416_442" x="-43.0757" y="-49.0757" width="196.503" height="199.151" filterUnits="userSpaceOnUse" color-interpolation-filters="sRGB">
<feFlood flood-opacity="0" result="BackgroundImageFix"/>
<feGaussianBlur in="BackgroundImage" stdDeviation="31.0378"/>
<feComposite in2="SourceAlpha" operator="in" result="effect1_backgroundBlur_416_442"/>
<feBlend mode="normal" in="SourceGraphic" in2="effect1_backgroundBlur_416_442" result="shape"/>
</filter>
<filter id="filter1_b_416_442" x="-43.0757" y="-49.0757" width="196.503" height="199.151" filterUnits="userSpaceOnUse" color-interpolation-filters="sRGB">
<feFlood flood-opacity="0" result="BackgroundImageFix"/>
<feGaussianBlur in="BackgroundImage" stdDeviation="31.0378"/>
<feComposite in2="SourceAlpha" operator="in" result="effect1_backgroundBlur_416_442"/>
<feBlend mode="normal" in="SourceGraphic" in2="effect1_backgroundBlur_416_442" result="shape"/>
</filter>
<linearGradient id="paint0_linear_416_442" x1="31.3187" y1="23.8476" x2="101.188" y2="54.3283" gradientUnits="userSpaceOnUse">
<stop stop-color="white"/>
<stop offset="1" stop-color="white" stop-opacity="0"/>
</linearGradient>
<linearGradient id="paint1_linear_416_442" x1="13.0438" y1="30.7156" x2="48.4305" y2="46.3068" gradientUnits="userSpaceOnUse">
<stop stop-color="white"/>
<stop offset="1" stop-color="white" stop-opacity="0"/>
</linearGradient>
<linearGradient id="paint2_linear_416_442" x1="55.1761" y1="13" x2="55.1761" y2="88" gradientUnits="userSpaceOnUse">
<stop stop-color="#FFD88B"/>
<stop offset="1" stop-color="#FFA900"/>
</linearGradient>
<linearGradient id="paint3_linear_416_442" x1="55.7285" y1="55.8655" x2="55.7285" y2="105.865" gradientUnits="userSpaceOnUse">
<stop offset="0.9999" stop-color="white"/>
<stop offset="1" stop-color="white" stop-opacity="0"/>
</linearGradient>
<linearGradient id="paint4_linear_416_442" x1="51.5879" y1="78.8043" x2="51.5879" y2="115.558" gradientUnits="userSpaceOnUse">
<stop offset="0.9999" stop-color="white"/>
<stop offset="1" stop-color="white" stop-opacity="0"/>
</linearGradient>
</defs>
</svg>
