<svg xmlns="http://www.w3.org/2000/svg" xmlns:xlink="http://www.w3.org/1999/xlink" viewBox="0 -10 70 90"><defs><style>.cls-1{fill:url(#New_Gradient_Swatch_copy);}.cls-2{fill:url(#New_Gradient_Swatch_copy_2);}.cls-3{fill:#fff;}.cls-4{fill:url(#New_Gradient_Swatch_copy_2-2);}.cls-5{fill:url(#New_Gradient_Swatch_copy_2-3);}.cls-6{fill:url(#New_Gradient_Swatch_copy_2-4);}.cls-7{fill:url(#New_Gradient_Swatch_copy-2);}.cls-8{fill:url(#New_Gradient_Swatch_copy-3);}</style><linearGradient id="New_Gradient_Swatch_copy" x1="42.62" y1="24.38" x2="58.22" y2="8.78" gradientUnits="userSpaceOnUse"><stop offset="0" stop-color="#00aeef"/><stop offset="1" stop-color="#00bdf2"/></linearGradient><linearGradient id="New_Gradient_Swatch_copy_2" x1="11.8" y1="49.05" x2="44.17" y2="16.68" gradientUnits="userSpaceOnUse"><stop offset="0" stop-color="#d0e8f8"/><stop offset="1" stop-color="#e1eef9"/></linearGradient><linearGradient id="New_Gradient_Swatch_copy_2-2" x1="33.36" y1="53.52" x2="37.36" y2="53.52" xlink:href="#New_Gradient_Swatch_copy_2"/><linearGradient id="New_Gradient_Swatch_copy_2-3" x1="43.36" y1="53.52" x2="47.36" y2="53.52" xlink:href="#New_Gradient_Swatch_copy_2"/><linearGradient id="New_Gradient_Swatch_copy_2-4" x1="29.36" y1="61.62" x2="33.36" y2="61.62" xlink:href="#New_Gradient_Swatch_copy_2"/><linearGradient id="New_Gradient_Swatch_copy-2" x1="20.92" y1="56.02" x2="27.81" y2="56.02" xlink:href="#New_Gradient_Swatch_copy"/><linearGradient id="New_Gradient_Swatch_copy-3" x1="10.88" y1="56.02" x2="17.77" y2="56.02" xlink:href="#New_Gradient_Swatch_copy"/></defs><g id="Слой_2" data-name="Слой 2"><g id="Icons"><g id="Hail_Night" data-name="Hail Night"><path class="cls-1" d="M52.94,28.67A14.6,14.6,0,0,1,48.91,0a.77.77,0,0,1,.75.19.76.76,0,0,1,.19.76A13.07,13.07,0,0,0,62.41,17.66,13.17,13.17,0,0,0,66,17.15a.76.76,0,0,1,1,.94A14.67,14.67,0,0,1,52.94,28.67Z"/><path class="cls-2" d="M46,45a10.67,10.67,0,1,0,0-21.33h-.11a17,17,0,0,0-32.44-5.06H13.2a13.2,13.2,0,0,0,0,26.4"/><path class="cls-3" d="M60.22,45a6.7,6.7,0,1,0,0-13.4h-.07a10.69,10.69,0,0,0-20.37-3.18h-.16a8.29,8.29,0,1,0,0,16.58"/><circle class="cls-4" cx="35.36" cy="53.52" r="2"/><circle class="cls-5" cx="45.36" cy="53.52" r="2"/><circle class="cls-6" cx="31.36" cy="61.62" r="2"/><path class="cls-7" d="M22.92,60.52a2,2,0,0,1-1-.27,2,2,0,0,1-.73-2.73l2.89-5a2,2,0,1,1,3.46,2l-2.89,5A2,2,0,0,1,22.92,60.52Z"/><path class="cls-8" d="M12.88,60.52a2,2,0,0,1-1-.27,2,2,0,0,1-.73-2.73l2.89-5a2,2,0,1,1,3.46,2l-2.89,5A2,2,0,0,1,12.88,60.52Z"/></g></g></g></svg>