<svg width="150" height="142" viewBox="0 0 150 142" fill="none" xmlns="http://www.w3.org/2000/svg">
<g filter="url(#filter0_b_416_423)">
<path fill-rule="evenodd" clip-rule="evenodd" d="M91.3522 68.9397C86.8798 70.7334 81.9968 71.7203 76.8833 71.7203C55.4047 71.7203 37.9929 54.3086 37.9929 32.83C37.9929 25.587 39.973 18.8064 43.4214 13C29.108 18.7405 19 32.7447 19 49.1097C19 70.5882 36.4118 88 57.8903 88C72.1258 88 84.5748 80.3515 91.3522 68.9397Z" fill="url(#paint0_linear_416_423)"/>
</g>
<g filter="url(#filter1_b_416_423)">
<path fill-rule="evenodd" clip-rule="evenodd" d="M90.2664 69.8376C86.0882 71.3488 81.5815 72.1726 76.8833 72.1726C55.155 72.1726 37.5407 54.5583 37.5407 32.83C37.5407 25.983 39.2902 19.5434 42.3668 13.935C28.8697 19.9004 19.4522 33.4058 19.4522 49.1097C19.4522 70.3385 36.6615 87.5478 57.8903 87.5478C71.4851 87.5478 83.4319 80.4904 90.2664 69.8376ZM90.661 69.2093C86.3784 70.8321 81.7346 71.7203 76.8833 71.7203C55.4047 71.7203 37.9929 54.3086 37.9929 32.83C37.9929 25.8521 39.8307 19.3034 43.0486 13.6416C43.1709 13.4264 43.2951 13.2126 43.4214 13C43.1904 13.0926 42.9606 13.1874 42.7318 13.2843C28.7845 19.1931 19 33.0087 19 49.1097C19 70.5882 36.4118 88 57.8903 88C71.859 88 84.1077 80.6354 90.9653 69.5772C91.0962 69.3661 91.2252 69.1536 91.3522 68.9397C91.1229 69.0317 90.8925 69.1215 90.661 69.2093Z" fill="url(#paint1_linear_416_423)"/>
</g>
<path fill-rule="evenodd" clip-rule="evenodd" d="M91.3522 68.9397C86.8798 70.7334 81.9968 71.7203 76.8833 71.7203C55.4047 71.7203 37.9929 54.3086 37.9929 32.83C37.9929 25.587 39.973 18.8064 43.4214 13C29.108 18.7405 19 32.7447 19 49.1097C19 70.5882 36.4118 88 57.8903 88C72.1258 88 84.5748 80.3515 91.3522 68.9397Z" fill="url(#paint2_linear_416_423)"/>
<path d="M106.624 77.3051C106.624 84.8685 100.481 91 92.9013 91H43.2458C33.1696 91 25 82.8481 25 72.7883C25 62.7314 33.1696 54.5766 43.2458 54.5766C44.1495 54.5766 45.0377 54.6458 45.9086 54.7718C50.0291 46.6045 58.5031 41 68.2922 41C80.1372 41 90.0602 49.2086 92.6672 60.2368C92.9273 61.3379 93.1152 62.4659 93.2231 63.6151V63.618C100.651 63.7872 106.624 69.8495 106.624 77.3051Z" fill="url(#paint3_linear_416_423)" stroke="black" stroke-opacity="0.1"/>
<path d="M89 94.5641C89 100.124 84.4847 104.631 78.9128 104.631H42.4121C35.0053 104.631 29 98.6386 29 91.2439C29 83.8512 35.0053 77.8568 42.4121 77.8568C43.0764 77.8568 43.7293 77.9077 44.3695 78.0003C47.3983 71.9967 53.6274 67.877 60.8232 67.877C69.5302 67.877 76.8244 73.911 78.7407 82.0176C78.9319 82.827 79.07 83.6561 79.1493 84.5009V84.503C84.6093 84.6274 89 89.0836 89 94.5641Z" fill="url(#paint4_linear_416_423)" stroke="black" stroke-opacity="0.1"/>
<path d="M59 109C54.8166 111.422 52 115.943 52 121.124C52 121.309 52.0026 121.493 52.0102 121.675C52.3526 130.476 65.6474 130.476 65.9898 121.675C65.9974 121.493 66 121.309 66 121.124C66.0013 115.943 63.1834 111.422 59 109V109Z" fill="#00A3FF"/>
<path d="M114 61.877L84.2796 85.7998H91.6693L78.506 101.045H86.256L74 118.913L103.378 98.4715H95.2676L108.245 83.8908H98.9686L114 61.877Z" fill="url(#paint5_radial_416_423)"/>
<defs>
<filter id="filter0_b_416_423" x="-43.0757" y="-49.0757" width="196.503" height="199.151" filterUnits="userSpaceOnUse" color-interpolation-filters="sRGB">
<feFlood flood-opacity="0" result="BackgroundImageFix"/>
<feGaussianBlur in="BackgroundImage" stdDeviation="31.0378"/>
<feComposite in2="SourceAlpha" operator="in" result="effect1_backgroundBlur_416_423"/>
<feBlend mode="normal" in="SourceGraphic" in2="effect1_backgroundBlur_416_423" result="shape"/>
</filter>
<filter id="filter1_b_416_423" x="-43.0757" y="-49.0757" width="196.503" height="199.151" filterUnits="userSpaceOnUse" color-interpolation-filters="sRGB">
<feFlood flood-opacity="0" result="BackgroundImageFix"/>
<feGaussianBlur in="BackgroundImage" stdDeviation="31.0378"/>
<feComposite in2="SourceAlpha" operator="in" result="effect1_backgroundBlur_416_423"/>
<feBlend mode="normal" in="SourceGraphic" in2="effect1_backgroundBlur_416_423" result="shape"/>
</filter>
<linearGradient id="paint0_linear_416_423" x1="31.3187" y1="23.8476" x2="101.188" y2="54.3283" gradientUnits="userSpaceOnUse">
<stop stop-color="white"/>
<stop offset="1" stop-color="white" stop-opacity="0"/>
</linearGradient>
<linearGradient id="paint1_linear_416_423" x1="13.0438" y1="30.7156" x2="48.4305" y2="46.3068" gradientUnits="userSpaceOnUse">
<stop stop-color="white"/>
<stop offset="1" stop-color="white" stop-opacity="0"/>
</linearGradient>
<linearGradient id="paint2_linear_416_423" x1="55.1761" y1="13" x2="55.1761" y2="88" gradientUnits="userSpaceOnUse">
<stop stop-color="#FFD88B"/>
<stop offset="1" stop-color="#FFA900"/>
</linearGradient>
<linearGradient id="paint3_linear_416_423" x1="55.7285" y1="55.8655" x2="55.7285" y2="105.865" gradientUnits="userSpaceOnUse">
<stop offset="0.9999" stop-color="white"/>
<stop offset="1" stop-color="white" stop-opacity="0"/>
</linearGradient>
<linearGradient id="paint4_linear_416_423" x1="51.5879" y1="78.8043" x2="51.5879" y2="115.558" gradientUnits="userSpaceOnUse">
<stop offset="0.9999" stop-color="white"/>
<stop offset="1" stop-color="white" stop-opacity="0"/>
</linearGradient>
<radialGradient id="paint5_radial_416_423" cx="0" cy="0" r="1" gradientUnits="userSpaceOnUse" gradientTransform="translate(94 90.395) rotate(90) scale(39.6941 27.8378)">
<stop stop-color="#FFD88B"/>
<stop offset="1" stop-color="#FFA900"/>
</radialGradient>
</defs>
</svg>
