<svg width="150" height="142" viewBox="0 0 150 142" fill="none" xmlns="http://www.w3.org/2000/svg">
<path d="M129 76.8034C129 86.9961 120.722 95.2592 110.507 95.2592H43.5888C30.0097 95.2592 19 84.2733 19 70.7162C19 57.1631 30.0097 46.1733 43.5888 46.1733C44.8067 46.1733 46.0037 46.2666 47.1774 46.4364C52.7303 35.4298 64.1503 27.877 77.3425 27.877C93.3053 27.877 106.678 38.9393 110.191 53.8014C110.542 55.2852 110.795 56.8054 110.94 58.3541V58.358C120.95 58.586 129 66.7558 129 76.8034Z" fill="url(#paint0_linear_415_168)" stroke="black" stroke-opacity="0.1"/>
<path d="M89 94.5641C89 100.124 84.4847 104.631 78.9128 104.631H42.4121C35.0053 104.631 29 98.6386 29 91.2439C29 83.8512 35.0053 77.8568 42.4121 77.8568C43.0764 77.8568 43.7293 77.9077 44.3695 78.0003C47.3983 71.9967 53.6274 67.877 60.8232 67.877C69.5302 67.877 76.8244 73.911 78.7407 82.0176C78.9319 82.827 79.07 83.6561 79.1493 84.5009V84.503C84.6093 84.6274 89 89.0836 89 94.5641Z" fill="url(#paint1_linear_415_168)" stroke="black" stroke-opacity="0.1"/>
<path d="M95 100C90.8166 102.422 88 106.943 88 112.124C88 112.309 88.0026 112.493 88.0102 112.675C88.3526 121.476 101.647 121.476 101.99 112.675C101.997 112.493 102 112.309 102 112.124C102.001 106.943 99.1834 102.422 95 100Z" fill="#00A3FF"/>
<path d="M59.8218 108.653C58.5567 108.536 57.4284 109.469 57.3006 110.738L56.7559 116.181L52.3318 113.024C51.3003 112.288 49.8613 112.535 49.1189 113.575C48.3765 114.616 48.6111 116.057 49.6426 116.793L54.0668 119.95L49.097 122.235C47.9387 122.768 47.423 124.139 47.945 125.297C48.467 126.456 49.8297 126.962 50.9889 126.429L55.9578 124.143L55.4121 129.585C55.2853 130.854 56.2071 131.978 57.4721 132.095C58.3206 132.174 59.1081 131.78 59.5729 131.129C59.8008 130.81 59.9509 130.427 59.9932 130.01L60.5379 124.567L64.9621 127.724C65.9936 128.46 67.4326 128.213 68.175 127.173C68.9174 126.132 68.6828 124.691 67.6512 123.955L63.2281 120.799L68.1969 118.513C68.5787 118.338 68.8904 118.071 69.1184 117.752C69.5831 117.1 69.6993 116.228 69.3498 115.451C68.8272 114.294 67.4642 113.786 66.3059 114.32L61.3361 116.605L61.8818 111.163C62.0085 109.894 61.0868 108.77 59.8218 108.653V108.653Z" fill="white" stroke="black" stroke-opacity="0.1"/>
<defs>
<linearGradient id="paint0_linear_415_168" x1="60.4111" y1="47.9103" x2="60.4111" y2="115.293" gradientUnits="userSpaceOnUse">
<stop offset="0.9999" stop-color="#EBEBEB"/>
<stop offset="1" stop-color="white" stop-opacity="0"/>
</linearGradient>
<linearGradient id="paint1_linear_415_168" x1="51.5879" y1="78.8043" x2="51.5879" y2="115.558" gradientUnits="userSpaceOnUse">
<stop offset="0.9999" stop-color="#E1E1E1"/>
<stop offset="1" stop-color="white" stop-opacity="0"/>
</linearGradient>
</defs>
</svg>
