<svg xmlns="http://www.w3.org/2000/svg" xmlns:xlink="http://www.w3.org/1999/xlink" viewBox="0 -22 70 90"><defs><style>.cls-1{fill:#fff;}.cls-2{fill:url(#New_Gradient_Swatch_copy_2);}.cls-3{fill:url(#New_Gradient_Swatch_copy_2-2);}.cls-4{fill:url(#New_Gradient_Swatch_copy_2-3);}.cls-5{fill:url(#New_Gradient_Swatch_copy_2-4);}.cls-6{fill:url(#New_Gradient_Swatch_copy_2-5);}</style><linearGradient id="New_Gradient_Swatch_copy_2" x1="38.75" y1="39" x2="59.07" y2="18.67" gradientUnits="userSpaceOnUse"><stop offset="0" stop-color="#d0e8f8"/><stop offset="1" stop-color="#e1eef9"/></linearGradient><linearGradient id="New_Gradient_Swatch_copy_2-2" x1="29.06" y1="45.78" x2="33.06" y2="45.78" xlink:href="#New_Gradient_Swatch_copy_2"/><linearGradient id="New_Gradient_Swatch_copy_2-3" x1="39.06" y1="45.78" x2="43.06" y2="45.78" xlink:href="#New_Gradient_Swatch_copy_2"/><linearGradient id="New_Gradient_Swatch_copy_2-4" x1="25.06" y1="53.89" x2="29.06" y2="53.89" xlink:href="#New_Gradient_Swatch_copy_2"/><linearGradient id="New_Gradient_Swatch_copy_2-5" x1="19.61" y1="45.78" x2="23.61" y2="45.78" xlink:href="#New_Gradient_Swatch_copy_2"/></defs><g id="Слой_2" data-name="Слой 2"><g id="Icons"><g id="Sleet"><path class="cls-1" d="M46,36.44a10.67,10.67,0,1,0,0-21.33h-.11a17,17,0,0,0-32.44-5.07H13.2a13.2,13.2,0,0,0,0,26.4"/><path class="cls-2" d="M60.22,36.44a6.7,6.7,0,1,0,0-13.39h-.07a10.69,10.69,0,0,0-20.37-3.18h-.16a8.29,8.29,0,0,0,0,16.58"/><circle class="cls-3" cx="31.06" cy="45.78" r="2"/><circle class="cls-4" cx="41.06" cy="45.78" r="2"/><circle class="cls-5" cx="27.06" cy="53.89" r="2"/><circle class="cls-6" cx="21.61" cy="45.78" r="2"/></g></g></g></svg>