<svg width="150" height="142" viewBox="0 0 150 142" fill="none" xmlns="http://www.w3.org/2000/svg">
<path d="M129 76.8034C129 86.9961 120.722 95.2592 110.507 95.2592H43.5888C30.0097 95.2592 19 84.2733 19 70.7162C19 57.1631 30.0097 46.1733 43.5888 46.1733C44.8067 46.1733 46.0037 46.2666 47.1774 46.4364C52.7303 35.4298 64.1503 27.877 77.3425 27.877C93.3053 27.877 106.678 38.9393 110.191 53.8014C110.542 55.2852 110.795 56.8054 110.94 58.3541V58.358C120.95 58.586 129 66.7558 129 76.8034Z" fill="url(#paint0_linear_415_140)" stroke="black" stroke-opacity="0.1"/>
<path d="M89 94.5641C89 100.124 84.4847 104.631 78.9128 104.631H42.4121C35.0053 104.631 29 98.6386 29 91.2439C29 83.8512 35.0053 77.8568 42.4121 77.8568C43.0764 77.8568 43.7293 77.9077 44.3695 78.0003C47.3983 71.9967 53.6274 67.877 60.8232 67.877C69.5302 67.877 76.8244 73.911 78.7407 82.0176C78.9319 82.827 79.07 83.6561 79.1493 84.5009V84.503C84.6093 84.6274 89 89.0836 89 94.5641Z" fill="url(#paint1_linear_415_140)" stroke="black" stroke-opacity="0.1"/>
<path d="M59 108C54.8166 110.422 52 114.943 52 120.124C52 120.309 52.0026 120.493 52.0102 120.675C52.3526 129.476 65.6474 129.476 65.9898 120.675C65.9974 120.493 66 120.309 66 120.124C66.0013 114.943 63.1834 110.422 59 108V108Z" fill="#00A3FF"/>
<path d="M81.6477 106.702C80.4289 107.06 79.725 108.344 80.0749 109.571L81.5788 114.83L76.3016 113.53C75.0711 113.227 73.825 113.988 73.5194 115.229C73.2137 116.47 73.9639 117.722 75.1944 118.025L80.4716 119.325L76.6972 123.284C75.8177 124.208 75.8447 125.672 76.7576 126.556C77.6704 127.439 79.1236 127.406 80.0042 126.483L83.7775 122.524L85.2803 127.783C85.6313 129.009 86.903 129.713 88.1218 129.355C88.9394 129.114 89.5258 128.458 89.7171 127.681C89.811 127.3 89.8093 126.889 89.6945 126.486L88.1906 121.226L93.4678 122.526C94.6983 122.829 95.9444 122.068 96.2501 120.827C96.5557 119.586 95.8055 118.334 94.575 118.031L89.299 116.731L93.0723 112.772C93.3624 112.468 93.5535 112.105 93.6474 111.724C93.8387 110.947 93.6244 110.093 93.013 109.501C92.0999 108.618 90.6458 108.65 89.7664 109.574L85.992 113.533L84.4892 108.274C84.1381 107.047 82.8665 106.343 81.6477 106.702V106.702Z" fill="white" stroke="black" stroke-opacity="0.1"/>
<defs>
<linearGradient id="paint0_linear_415_140" x1="60.4111" y1="47.9103" x2="60.4111" y2="115.293" gradientUnits="userSpaceOnUse">
<stop offset="0.9999" stop-color="#EBEBEB"/>
<stop offset="1" stop-color="white" stop-opacity="0"/>
</linearGradient>
<linearGradient id="paint1_linear_415_140" x1="51.5879" y1="78.8043" x2="51.5879" y2="115.558" gradientUnits="userSpaceOnUse">
<stop offset="0.9999" stop-color="#E1E1E1"/>
<stop offset="1" stop-color="white" stop-opacity="0"/>
</linearGradient>
</defs>
</svg>
