<svg width="150" height="185" viewBox="0 0 150 185" fill="none" xmlns="http://www.w3.org/2000/svg">
<path d="M129 119.803C129 129.996 120.722 138.259 110.507 138.259H43.5888C30.0097 138.259 19 127.273 19 113.716C19 100.163 30.0097 89.1733 43.5888 89.1733C44.8067 89.1733 46.0037 89.2666 47.1774 89.4364C52.7303 78.4298 64.1503 70.877 77.3425 70.877C93.3053 70.877 106.678 81.9393 110.191 96.8014C110.542 98.2852 110.795 99.8054 110.94 101.354V101.358C120.95 101.586 129 109.756 129 119.803Z" fill="url(#paint0_linear_415_154)" stroke="black" stroke-opacity="0.1"/>
<path d="M89 137.564C89 143.124 84.4847 147.631 78.9128 147.631H42.4121C35.0053 147.631 29 141.639 29 134.244C29 126.851 35.0053 120.857 42.4121 120.857C43.0764 120.857 43.7293 120.908 44.3695 121C47.3983 114.997 53.6274 110.877 60.8232 110.877C69.5302 110.877 76.8244 116.911 78.7407 125.018C78.9319 125.827 79.07 126.656 79.1493 127.501V127.503C84.6093 127.627 89 132.084 89 137.564Z" fill="url(#paint1_linear_415_154)" stroke="black" stroke-opacity="0.1"/>
<path d="M44 152C39.8166 154.422 37 158.943 37 164.124C37 164.309 37.0026 164.493 37.0102 164.675C37.3526 173.476 50.6474 173.476 50.9898 164.675C50.9974 164.493 51 164.309 51 164.124C51.0013 158.943 48.1834 154.422 44 152V152Z" fill="#00A3FF"/>
<path d="M90 148C85.8166 150.422 83 154.943 83 160.124C83 160.309 83.0026 160.493 83.0102 160.675C83.3526 169.476 96.6474 169.476 96.9898 160.675C96.9974 160.493 97 160.309 97 160.124C97.0013 154.943 94.1834 150.422 90 148Z" fill="#00A3FF"/>
<path d="M113.822 140.653C112.557 140.536 111.428 141.469 111.301 142.738L110.756 148.181L106.332 145.024C105.3 144.288 103.861 144.535 103.119 145.575C102.376 146.616 102.611 148.057 103.643 148.793L108.067 151.95L103.097 154.235C101.939 154.768 101.423 156.139 101.945 157.297C102.467 158.456 103.83 158.962 104.989 158.429L109.958 156.143L109.412 161.585C109.285 162.854 110.207 163.978 111.472 164.095C112.321 164.174 113.108 163.78 113.573 163.129C113.801 162.81 113.951 162.427 113.993 162.01L114.538 156.567L118.962 159.724C119.994 160.46 121.433 160.213 122.175 159.173C122.917 158.132 122.683 156.691 121.651 155.955L117.228 152.799L122.197 150.513C122.579 150.338 122.89 150.071 123.118 149.752C123.583 149.1 123.699 148.228 123.35 147.451C122.827 146.294 121.464 145.786 120.306 146.32L115.336 148.605L115.882 143.163C116.009 141.894 115.087 140.77 113.822 140.653V140.653Z" fill="white" stroke="black" stroke-opacity="0.1"/>
<path d="M62.6477 149.702C61.4289 150.06 60.725 151.344 61.0749 152.571L62.5788 157.83L57.3016 156.53C56.0711 156.227 54.825 156.988 54.5194 158.229C54.2137 159.47 54.9639 160.722 56.1944 161.025L61.4716 162.325L57.6972 166.284C56.8177 167.208 56.8447 168.672 57.7576 169.556C58.6704 170.439 60.1236 170.406 61.0042 169.483L64.7775 165.524L66.2803 170.783C66.6313 172.009 67.903 172.713 69.1218 172.355C69.9394 172.114 70.5258 171.458 70.7171 170.681C70.811 170.3 70.8093 169.889 70.6945 169.486L69.1906 164.226L74.4678 165.526C75.6983 165.829 76.9444 165.068 77.2501 163.827C77.5557 162.586 76.8055 161.334 75.575 161.031L70.299 159.731L74.0723 155.772C74.3624 155.468 74.5535 155.105 74.6474 154.724C74.8387 153.947 74.6244 153.093 74.013 152.501C73.0999 151.618 71.6458 151.65 70.7664 152.574L66.992 156.533L65.4892 151.274C65.1381 150.047 63.8665 149.343 62.6477 149.702V149.702Z" fill="white" stroke="black" stroke-opacity="0.1"/>
<path d="M108 0C103.817 2.4219 101 6.94252 101 12.1235C101 12.3088 101.003 12.4927 101.01 12.6754C101.353 21.4765 114.647 21.4765 114.99 12.6754C114.997 12.4927 115 12.3088 115 12.1235C115.001 6.94252 112.183 2.4219 108 0Z" fill="#00A3FF"/>
<defs>
<linearGradient id="paint0_linear_415_154" x1="60.4111" y1="90.9103" x2="60.4111" y2="158.293" gradientUnits="userSpaceOnUse">
<stop offset="0.9999" stop-color="#EBEBEB"/>
<stop offset="1" stop-color="white" stop-opacity="0"/>
</linearGradient>
<linearGradient id="paint1_linear_415_154" x1="51.5879" y1="121.804" x2="51.5879" y2="158.558" gradientUnits="userSpaceOnUse">
<stop offset="0.9999" stop-color="#E1E1E1"/>
<stop offset="1" stop-color="white" stop-opacity="0"/>
</linearGradient>
</defs>
</svg>
