<svg width="150" height="142" viewBox="0 0 150 142" fill="none" xmlns="http://www.w3.org/2000/svg">
<path d="M129 76.8034C129 86.9961 120.722 95.2592 110.507 95.2592H43.5888C30.0097 95.2592 19 84.2733 19 70.7162C19 57.1631 30.0097 46.1733 43.5888 46.1733C44.8067 46.1733 46.0037 46.2666 47.1774 46.4364C52.7303 35.4298 64.1503 27.877 77.3425 27.877C93.3053 27.877 106.678 38.9393 110.191 53.8014C110.542 55.2852 110.795 56.8054 110.94 58.3541V58.358C120.95 58.586 129 66.7558 129 76.8034Z" fill="url(#paint0_linear_415_207)" stroke="black" stroke-opacity="0.1"/>
<path d="M89 94.5641C89 100.124 84.4847 104.631 78.9128 104.631H42.4121C35.0053 104.631 29 98.6386 29 91.2439C29 83.8512 35.0053 77.8568 42.4121 77.8568C43.0764 77.8568 43.7293 77.9077 44.3695 78.0003C47.3983 71.9967 53.6274 67.877 60.8232 67.877C69.5302 67.877 76.8244 73.911 78.7407 82.0176C78.9319 82.827 79.07 83.6561 79.1493 84.5009V84.503C84.6093 84.6274 89 89.0836 89 94.5641Z" fill="url(#paint1_linear_415_207)" stroke="black" stroke-opacity="0.1"/>
<path d="M51.8218 109.653C50.5567 109.536 49.4284 110.469 49.3006 111.738L48.7559 117.181L44.3318 114.024C43.3003 113.288 41.8613 113.535 41.1189 114.575C40.3765 115.616 40.6111 117.057 41.6426 117.793L46.0668 120.95L41.097 123.235C39.9387 123.768 39.423 125.139 39.945 126.297C40.467 127.456 41.8297 127.962 42.9889 127.429L47.9578 125.143L47.4121 130.585C47.2853 131.854 48.2071 132.978 49.4721 133.095C50.3206 133.174 51.1081 132.78 51.5729 132.129C51.8008 131.81 51.9509 131.427 51.9932 131.01L52.5379 125.567L56.9621 128.724C57.9936 129.46 59.4326 129.213 60.175 128.173C60.9174 127.132 60.6828 125.691 59.6512 124.955L55.2281 121.799L60.1969 119.513C60.5787 119.338 60.8904 119.071 61.1184 118.752C61.5831 118.1 61.6993 117.228 61.3498 116.451C60.8272 115.294 59.4642 114.786 58.3059 115.32L53.3361 117.605L53.8818 112.163C54.0085 110.894 53.0868 109.77 51.8218 109.653V109.653Z" fill="white" stroke="black" stroke-opacity="0.1"/>
<path d="M95.7316 113.632C95.7616 114.902 96.8191 115.915 98.0942 115.895L103.564 115.808L100.939 120.567C100.327 121.677 100.738 123.077 101.857 123.695C102.977 124.312 104.381 123.913 104.993 122.803L107.618 118.044L110.462 122.716C111.125 123.805 112.546 124.159 113.637 123.507C114.727 122.855 115.072 121.443 114.409 120.353L111.564 115.681L117.033 115.594C118.309 115.574 119.319 114.528 119.289 113.258C119.269 112.406 118.787 111.67 118.086 111.283C117.743 111.094 117.346 110.989 116.926 110.995L111.457 111.083L114.082 106.323C114.694 105.214 114.282 103.813 113.163 103.196C112.044 102.578 110.639 102.978 110.027 104.088L107.403 108.846L104.559 104.174C104.341 103.815 104.04 103.536 103.696 103.347C102.995 102.96 102.115 102.946 101.384 103.382C100.295 104.035 99.9484 105.448 100.612 106.537L103.456 111.209L97.9873 111.296C96.7116 111.317 95.7016 112.362 95.7316 113.632Z" fill="white" stroke="black" stroke-opacity="0.1"/>
<path d="M68.0091 116.627C67.7909 117.878 68.6307 119.078 69.8852 119.307L75.2667 120.287L71.7647 124.443C70.9481 125.413 71.0786 126.867 72.056 127.69C73.0334 128.514 74.4887 128.396 75.3052 127.427L78.8072 123.27L80.686 128.408C81.1247 129.605 82.4494 130.229 83.6459 129.802C84.8423 129.375 85.4562 128.057 85.0182 126.859L83.1387 121.722L88.5194 122.703C89.7747 122.932 90.9691 122.103 91.1872 120.852C91.3339 120.012 91.0047 119.196 90.3928 118.68C90.0927 118.427 89.7237 118.247 89.3111 118.171L83.9296 117.191L87.4316 113.035C88.2482 112.066 88.1177 110.611 87.1403 109.788C86.1629 108.964 84.7076 109.082 83.8911 110.052L80.3898 114.207L78.5103 109.071C78.3664 108.676 78.1254 108.344 77.8253 108.091C77.2134 107.575 76.3529 107.389 75.5512 107.675C74.3556 108.103 73.7401 109.421 74.1788 110.619L76.0576 115.756L70.6768 114.775C69.4216 114.546 68.2272 115.375 68.0091 116.627V116.627Z" fill="white" stroke="black" stroke-opacity="0.1"/>
<defs>
<linearGradient id="paint0_linear_415_207" x1="60.4111" y1="47.9103" x2="60.4111" y2="115.293" gradientUnits="userSpaceOnUse">
<stop offset="0.9999" stop-color="#EBEBEB"/>
<stop offset="1" stop-color="white" stop-opacity="0"/>
</linearGradient>
<linearGradient id="paint1_linear_415_207" x1="51.5879" y1="78.8043" x2="51.5879" y2="115.558" gradientUnits="userSpaceOnUse">
<stop offset="0.9999" stop-color="#E1E1E1"/>
<stop offset="1" stop-color="white" stop-opacity="0"/>
</linearGradient>
</defs>
</svg>
