<svg width="150" height="142" viewBox="0 0 150 142" fill="none" xmlns="http://www.w3.org/2000/svg">
<g filter="url(#filter0_b_416_335)">
<path fill-rule="evenodd" clip-rule="evenodd" d="M86.3522 68.9397C81.8798 70.7334 76.9968 71.7203 71.8833 71.7203C50.4047 71.7203 32.9929 54.3086 32.9929 32.83C32.9929 25.587 34.973 18.8064 38.4214 13C24.108 18.7405 14 32.7447 14 49.1097C14 70.5882 31.4118 88 52.8903 88C67.1258 88 79.5748 80.3515 86.3522 68.9397Z" fill="url(#paint0_linear_416_335)"/>
</g>
<g filter="url(#filter1_b_416_335)">
<path fill-rule="evenodd" clip-rule="evenodd" d="M85.2664 69.8376C81.0882 71.3488 76.5815 72.1726 71.8833 72.1726C50.155 72.1726 32.5407 54.5583 32.5407 32.83C32.5407 25.983 34.2902 19.5434 37.3668 13.935C23.8697 19.9004 14.4522 33.4058 14.4522 49.1097C14.4522 70.3385 31.6615 87.5478 52.8903 87.5478C66.4851 87.5478 78.4319 80.4904 85.2664 69.8376ZM85.661 69.2093C81.3784 70.8321 76.7346 71.7203 71.8833 71.7203C50.4047 71.7203 32.9929 54.3086 32.9929 32.83C32.9929 25.8521 34.8307 19.3034 38.0486 13.6416C38.1709 13.4264 38.2951 13.2126 38.4214 13C38.1904 13.0926 37.9606 13.1874 37.7318 13.2843C23.7845 19.1931 14 33.0087 14 49.1097C14 70.5882 31.4118 88 52.8903 88C66.859 88 79.1077 80.6354 85.9653 69.5772C86.0962 69.3661 86.2252 69.1536 86.3522 68.9397C86.1229 69.0317 85.8925 69.1215 85.661 69.2093Z" fill="url(#paint1_linear_416_335)"/>
</g>
<path fill-rule="evenodd" clip-rule="evenodd" d="M86.3522 68.9397C81.8798 70.7334 76.9968 71.7203 71.8833 71.7203C50.4047 71.7203 32.9929 54.3086 32.9929 32.83C32.9929 25.587 34.973 18.8064 38.4214 13C24.108 18.7405 14 32.7447 14 49.1097C14 70.5882 31.4118 88 52.8903 88C67.1258 88 79.5748 80.3515 86.3522 68.9397Z" fill="url(#paint2_linear_416_335)"/>
<path d="M95.7305 40.9661H43.3803C42.0664 40.9661 41 39.8546 41 38.4824C41 37.1114 42.0664 36 43.3803 36H95.7305C97.0444 36 98.1096 37.1114 98.1096 38.4824C98.1096 39.8546 97.0444 40.9661 95.7305 40.9661Z" fill="white"/>
<path d="M43.3803 41.4661H95.7305C97.3406 41.4661 98.6096 40.1103 98.6096 38.4824C98.6096 36.8555 97.3404 35.5 95.7305 35.5H43.3803C41.7707 35.5 40.5 36.8552 40.5 38.4824C40.5 40.1107 41.7706 41.4661 43.3803 41.4661Z" stroke="black" stroke-opacity="0.1"/>
<path d="M73.7305 31.9661H21.3803C20.0664 31.9661 19 30.8546 19 29.4824C19 28.1114 20.0664 27 21.3803 27H73.7305C75.0444 27 76.1096 28.1114 76.1096 29.4824C76.1096 30.8546 75.0444 31.9661 73.7305 31.9661Z" fill="white"/>
<path d="M21.3803 32.4661H73.7305C75.3406 32.4661 76.6096 31.1103 76.6096 29.4824C76.6096 27.8555 75.3404 26.5 73.7305 26.5H21.3803C19.7707 26.5 18.5 27.8552 18.5 29.4824C18.5 31.1107 19.7706 32.4661 21.3803 32.4661Z" stroke="black" stroke-opacity="0.1"/>
<path d="M86.3337 22.9661H49.6672C48.7469 22.9661 48 21.8546 48 20.4824C48 19.1114 48.7469 18 49.6672 18H86.3337C87.2539 18 88 19.1114 88 20.4824C88 21.8546 87.2539 22.9661 86.3337 22.9661Z" fill="white"/>
<path d="M49.6672 23.4661H86.3337C87.0114 23.4661 87.5653 23.0567 87.9271 22.5174C88.2911 21.975 88.5 21.2541 88.5 20.4824C88.5 19.7113 88.2911 18.9907 87.9271 18.4484C87.5652 17.9094 87.0114 17.5 86.3337 17.5H49.6672C48.9895 17.5 48.4355 17.9093 48.0734 18.4483C47.7092 18.9905 47.5 19.7112 47.5 20.4824C47.5 21.2542 47.7091 21.9751 48.0734 22.5175C48.4354 23.0568 48.9895 23.4661 49.6672 23.4661Z" stroke="black" stroke-opacity="0.1"/>
<path d="M52.3337 49.9661H15.6672C14.7469 49.9661 14 48.8546 14 47.4824C14 46.1114 14.7469 45 15.6672 45H52.3337C53.2539 45 54 46.1114 54 47.4824C54 48.8546 53.2539 49.9661 52.3337 49.9661Z" fill="white"/>
<path d="M15.6672 50.4661H52.3337C53.0114 50.4661 53.5653 50.0567 53.9271 49.5174C54.2911 48.975 54.5 48.2541 54.5 47.4824C54.5 46.7113 54.2911 45.9907 53.9271 45.4484C53.5652 44.9094 53.0114 44.5 52.3337 44.5H15.6672C14.9895 44.5 14.4355 44.9093 14.0734 45.4483C13.7092 45.9905 13.5 46.7112 13.5 47.4824C13.5 48.2542 13.7091 48.9751 14.0734 49.5175C14.4354 50.0568 14.9895 50.4661 15.6672 50.4661Z" stroke="black" stroke-opacity="0.1"/>
<defs>
<filter id="filter0_b_416_335" x="-48.0757" y="-49.0757" width="196.504" height="199.151" filterUnits="userSpaceOnUse" color-interpolation-filters="sRGB">
<feFlood flood-opacity="0" result="BackgroundImageFix"/>
<feGaussianBlur in="BackgroundImage" stdDeviation="31.0378"/>
<feComposite in2="SourceAlpha" operator="in" result="effect1_backgroundBlur_416_335"/>
<feBlend mode="normal" in="SourceGraphic" in2="effect1_backgroundBlur_416_335" result="shape"/>
</filter>
<filter id="filter1_b_416_335" x="-48.0757" y="-49.0757" width="196.504" height="199.151" filterUnits="userSpaceOnUse" color-interpolation-filters="sRGB">
<feFlood flood-opacity="0" result="BackgroundImageFix"/>
<feGaussianBlur in="BackgroundImage" stdDeviation="31.0378"/>
<feComposite in2="SourceAlpha" operator="in" result="effect1_backgroundBlur_416_335"/>
<feBlend mode="normal" in="SourceGraphic" in2="effect1_backgroundBlur_416_335" result="shape"/>
</filter>
<linearGradient id="paint0_linear_416_335" x1="26.3187" y1="23.8476" x2="96.1876" y2="54.3283" gradientUnits="userSpaceOnUse">
<stop stop-color="white"/>
<stop offset="1" stop-color="white" stop-opacity="0"/>
</linearGradient>
<linearGradient id="paint1_linear_416_335" x1="8.04383" y1="30.7156" x2="43.4305" y2="46.3068" gradientUnits="userSpaceOnUse">
<stop stop-color="white"/>
<stop offset="1" stop-color="white" stop-opacity="0"/>
</linearGradient>
<linearGradient id="paint2_linear_416_335" x1="50.1761" y1="13" x2="50.1761" y2="88" gradientUnits="userSpaceOnUse">
<stop stop-color="#FFD88B"/>
<stop offset="1" stop-color="#FFA900"/>
</linearGradient>
</defs>
</svg>
