<svg width="150" height="142" viewBox="0 0 150 142" fill="none" xmlns="http://www.w3.org/2000/svg">
<path d="M129 76.8034C129 86.9961 120.722 95.2592 110.507 95.2592H43.5888C30.0097 95.2592 19 84.2733 19 70.7162C19 57.1631 30.0097 46.1733 43.5888 46.1733C44.8067 46.1733 46.0037 46.2666 47.1774 46.4364C52.7303 35.4298 64.1503 27.877 77.3425 27.877C93.3053 27.877 106.678 38.9393 110.191 53.8014C110.542 55.2852 110.795 56.8054 110.94 58.3541V58.358C120.95 58.586 129 66.7558 129 76.8034Z" fill="url(#paint0_linear_412_20)" stroke="black" stroke-opacity="0.1"/>
<path d="M89 94.5641C89 100.124 84.4847 104.631 78.9128 104.631H42.4121C35.0053 104.631 29 98.6386 29 91.2439C29 83.8512 35.0053 77.8568 42.4121 77.8568C43.0764 77.8568 43.7293 77.9077 44.3695 78.0003C47.3983 71.9967 53.6274 67.877 60.8232 67.877C69.5302 67.877 76.8244 73.911 78.7407 82.0176C78.9319 82.827 79.07 83.6561 79.1493 84.5009V84.503C84.6093 84.6274 89 89.0836 89 94.5641Z" fill="url(#paint1_linear_412_20)" stroke="black" stroke-opacity="0.1"/>
<path d="M62.3812 113.2H36.1908C35.5335 113.2 35 112.484 35 111.6C35 110.716 35.5335 110 36.1908 110H62.3812C63.0385 110 63.5714 110.716 63.5714 111.6C63.5714 112.484 63.0385 113.2 62.3812 113.2Z" fill="#F3F3F3"/>
<path d="M36.1908 113.7H62.3812C62.9043 113.7 63.3383 113.414 63.624 113.03C63.9097 112.646 64.0714 112.138 64.0714 111.6C64.0714 111.061 63.9097 110.554 63.624 110.17C63.3382 109.786 62.9043 109.5 62.3812 109.5H36.1908C35.6678 109.5 35.2337 109.786 34.9479 110.17C34.662 110.554 34.5 111.061 34.5 111.6C34.5 112.139 34.6619 112.646 34.9478 113.03C35.2337 113.414 35.6678 113.7 36.1908 113.7Z" stroke="black" stroke-opacity="0.1"/>
<path d="M86.3947 113.2H67.6873C67.2177 113.2 66.8367 112.484 66.8367 111.6C66.8367 110.716 67.2177 110 67.6873 110H86.3947C86.8642 110 87.2448 110.716 87.2448 111.6C87.2448 112.484 86.8642 113.2 86.3947 113.2Z" fill="#F3F3F3"/>
<path d="M67.6873 113.7H86.3947C86.9049 113.7 87.2496 113.319 87.4374 112.966C87.6367 112.591 87.7448 112.107 87.7448 111.6C87.7448 111.093 87.6367 110.609 87.4373 110.234C87.2496 109.881 86.9049 109.5 86.3947 109.5H67.6873C67.1771 109.5 66.8323 109.881 66.6444 110.234C66.4449 110.609 66.3367 111.093 66.3367 111.6C66.3367 112.107 66.4449 112.591 66.6444 112.966C66.8323 113.319 67.1771 113.7 67.6873 113.7Z" stroke="black" stroke-opacity="0.1"/>
<path d="M113.98 113.2H91.531C90.9675 113.2 90.5103 112.484 90.5103 111.6C90.5103 110.716 90.9675 110 91.531 110H113.98C114.543 110 115 110.716 115 111.6C115 112.484 114.543 113.2 113.98 113.2Z" fill="#F3F3F3"/>
<path d="M91.531 113.7H113.98C114.491 113.7 114.883 113.376 115.123 113C115.366 112.619 115.5 112.122 115.5 111.6C115.5 111.077 115.366 110.581 115.123 110.2C114.883 109.824 114.491 109.5 113.98 109.5H91.531C91.0196 109.5 90.6275 109.824 90.3878 110.2C90.1445 110.581 90.0103 111.077 90.0103 111.6C90.0103 112.122 90.1445 112.619 90.3878 113C90.6274 113.376 91.0196 113.7 91.531 113.7Z" stroke="black" stroke-opacity="0.1"/>
<path d="M87.6188 117H113.809C114.467 117 115 117.716 115 118.6C115 119.484 114.467 120.2 113.809 120.2H87.6188C86.9615 120.2 86.4286 119.484 86.4286 118.6C86.4286 117.716 86.9615 117 87.6188 117Z" fill="#F3F3F3"/>
<path d="M113.809 116.5H87.6188C87.0957 116.5 86.6617 116.786 86.376 117.17C86.0903 117.554 85.9286 118.062 85.9286 118.6C85.9286 119.139 86.0903 119.646 86.376 120.03C86.6618 120.414 87.0957 120.7 87.6188 120.7H113.809C114.332 120.7 114.766 120.414 115.052 120.03C115.338 119.646 115.5 119.139 115.5 118.6C115.5 118.061 115.338 117.554 115.052 117.17C114.766 116.786 114.332 116.5 113.809 116.5Z" stroke="black" stroke-opacity="0.1"/>
<path d="M63.6053 117H82.3127C82.7823 117 83.1633 117.716 83.1633 118.6C83.1633 119.484 82.7823 120.2 82.3127 120.2H63.6053C63.1358 120.2 62.7552 119.484 62.7552 118.6C62.7552 117.716 63.1358 117 63.6053 117Z" fill="#F3F3F3"/>
<path d="M82.3127 116.5H63.6053C63.0951 116.5 62.7504 116.881 62.5626 117.234C62.3633 117.609 62.2552 118.093 62.2552 118.6C62.2552 119.107 62.3633 119.591 62.5627 119.966C62.7504 120.319 63.0951 120.7 63.6053 120.7H82.3127C82.8229 120.7 83.1677 120.319 83.3556 119.966C83.5551 119.591 83.6633 119.107 83.6633 118.6C83.6633 118.093 83.5551 117.609 83.3556 117.234C83.1677 116.881 82.8229 116.5 82.3127 116.5Z" stroke="black" stroke-opacity="0.1"/>
<path d="M36.0201 117H58.469C59.0325 117 59.4897 117.716 59.4897 118.6C59.4897 119.484 59.0325 120.2 58.469 120.2H36.0201C35.4567 120.2 34.9999 119.484 34.9999 118.6C34.9999 117.716 35.4567 117 36.0201 117Z" fill="#F3F3F3"/>
<path d="M58.469 116.5H36.0201C35.5087 116.5 35.1166 116.824 34.8772 117.2C34.634 117.581 34.4999 118.078 34.4999 118.6C34.4999 119.123 34.634 119.619 34.8772 120C35.1167 120.376 35.5087 120.7 36.0201 120.7H58.469C58.9804 120.7 59.3725 120.376 59.6122 120C59.8555 119.619 59.9897 119.123 59.9897 118.6C59.9897 118.078 59.8555 117.581 59.6122 117.2C59.3726 116.824 58.9804 116.5 58.469 116.5Z" stroke="black" stroke-opacity="0.1"/>
<path d="M86.0548 127.2H59.8644C59.2071 127.2 58.6736 126.484 58.6736 125.6C58.6736 124.716 59.2071 124 59.8644 124H86.0548C86.7121 124 87.245 124.716 87.245 125.6C87.245 126.484 86.7121 127.2 86.0548 127.2Z" fill="#F3F3F3"/>
<path d="M59.8644 127.7H86.0548C86.5779 127.7 87.0119 127.414 87.2976 127.03C87.5833 126.646 87.745 126.138 87.745 125.6C87.745 125.061 87.5832 124.554 87.2975 124.17C87.0118 123.786 86.5778 123.5 86.0548 123.5H59.8644C59.3414 123.5 58.9073 123.786 58.6215 124.17C58.3356 124.554 58.1736 125.061 58.1736 125.6C58.1736 126.139 58.3355 126.646 58.6214 127.03C58.9073 127.414 59.3414 127.7 59.8644 127.7Z" stroke="black" stroke-opacity="0.1"/>
<path d="M54.558 127.2H35.8506C35.3811 127.2 35 126.484 35 125.6C35 124.716 35.3811 124 35.8506 124H54.558C55.0275 124 55.4082 124.716 55.4082 125.6C55.4082 126.484 55.0275 127.2 54.558 127.2Z" fill="#F3F3F3"/>
<path d="M35.8506 127.7H54.558C55.0683 127.7 55.413 127.319 55.6007 126.966C55.8001 126.591 55.9082 126.107 55.9082 125.6C55.9082 125.093 55.8 124.609 55.6007 124.234C55.4129 123.881 55.0682 123.5 54.558 123.5H35.8506C35.3405 123.5 34.9956 123.881 34.8078 124.234C34.6083 124.609 34.5 125.093 34.5 125.6C34.5 126.107 34.6082 126.591 34.8077 126.966C34.9956 127.319 35.3404 127.7 35.8506 127.7Z" stroke="black" stroke-opacity="0.1"/>
<path d="M113.98 127.2H91.531C90.9675 127.2 90.5103 126.484 90.5103 125.6C90.5103 124.716 90.9675 124 91.531 124H113.98C114.543 124 115 124.716 115 125.6C115 126.484 114.543 127.2 113.98 127.2Z" fill="#F3F3F3"/>
<path d="M91.531 127.7H113.98C114.491 127.7 114.883 127.376 115.123 127C115.366 126.619 115.5 126.122 115.5 125.6C115.5 125.077 115.366 124.581 115.123 124.2C114.883 123.824 114.491 123.5 113.98 123.5H91.531C91.0196 123.5 90.6275 123.824 90.3878 124.2C90.1445 124.581 90.0103 125.077 90.0103 125.6C90.0103 126.122 90.1445 126.619 90.3878 127C90.6274 127.376 91.0196 127.7 91.531 127.7Z" stroke="black" stroke-opacity="0.1"/>
<defs>
<linearGradient id="paint0_linear_412_20" x1="60.4111" y1="47.9103" x2="60.4111" y2="115.293" gradientUnits="userSpaceOnUse">
<stop offset="0.9999" stop-color="#EBEBEB"/>
<stop offset="1" stop-color="white" stop-opacity="0"/>
</linearGradient>
<linearGradient id="paint1_linear_412_20" x1="51.5879" y1="78.8043" x2="51.5879" y2="115.558" gradientUnits="userSpaceOnUse">
<stop offset="0.9999" stop-color="#F3F3F3"/>
<stop offset="1" stop-color="white" stop-opacity="0"/>
</linearGradient>
</defs>
</svg>
